<svg version="1.1" xmlns="http://www.w3.org/2000/svg" xmlns:xlink="http://www.w3.org/1999/xlink" x="0px" y="0px" viewBox="-1027 563 37 37" enable-background="new -1027 563 37 37" xml:space="preserve" class="def_Asi2W"><g><path stroke-linecap="round" stroke-miterlimit="10" d="M-1018.945,595.644c-4.147-3.216-7.055-8.375-7.055-14.05c0-9.717,7.836-17.594,17.5-17.594c9.665,0,17.5,7.877,17.5,17.594c0,5.719-2.713,10.799-6.914,14.013" class="cls_01_1DH8F"/><path stroke-linecap="round" stroke-miterlimit="10" d="M-1018.945,585.237c0,0-2.611,0-3.085,3.699c-0.323,2.519-0.322,3.317-0.207,3.479c1.346,1.87,3.292,3.229,3.292,3.229V585.237" class="cls_01_1DH8F"/><line stroke-linecap="round" stroke-miterlimit="10" x1="-1018.945" y1="583.042" x2="-1018.945" y2="595.422" class="cls_01_1DH8F"/><line stroke-linecap="round" stroke-miterlimit="10" x1="-998.055" y1="595.422" x2="-998.055" y2="583.042" class="cls_01_1DH8F"/><path stroke-linecap="round" stroke-miterlimit="10" d="M-998.055,585.237c0,0,2.61,0,3.085,3.699c0.13,1.016,0.486,2.602,0.206,3.175c-1.155,2.374-3.292,3.592-3.292,3.592V585.237" class="cls_01_1DH8F"/><path stroke-linecap="round" stroke-miterlimit="10" d="M-997.117,574.323h-11.514h-0.192h-11.513c0,0-1.146,8.927,3.461,10.182c1.479,0.403,3.587,0.894,7.817,0.908h0.722c4.23-0.015,6.278-0.505,7.759-0.908C-995.972,583.25-997.117,574.323-997.117,574.323z" class="cls_01_1DH8F"/><path stroke-linecap="round" stroke-miterlimit="10" d="M-1001.346,595.044c0.023-1.456-0.654-2.91-1.572-2.91h-11.531c-0.918,0-1.573,1.558-1.514,2.91H-1001.346z" class="cls_01_1DH8F"/><path stroke-linecap="round" stroke-miterlimit="10" d="M-1008.737,569.328c-5.324,0.017-5.731,4.995-5.731,4.995h2.223c0,0,0.012-2.773,3.508-2.896c3.497,0.123,3.509,2.896,3.509,2.896h2.223C-1003.005,574.323-1003.413,569.345-1008.737,569.328z" class="cls_01_1DH8F"/><line stroke-linecap="round" stroke-miterlimit="10" x1="-1014.408" y1="579.524" x2="-1014.408" y2="588.93" class="cls_01_1DH8F"/><line stroke-linecap="round" stroke-miterlimit="10" x1="-1002.996" y1="579.524" x2="-1002.996" y2="588.93" class="cls_01_1DH8F"/><line stroke-linecap="round" stroke-miterlimit="10" x1="-1001.768" y1="588.964" x2="-1004.223" y2="588.964" class="cls_01_1DH8F"/><line stroke-linecap="round" stroke-miterlimit="10" x1="-1013.241" y1="588.964" x2="-1015.696" y2="588.964" class="cls_01_1DH8F"/><polyline stroke-linecap="round" stroke-miterlimit="10" points="-1015.966,597.253-1015.966,595.044 -1001.345,595.044 -1001.345,597.431 " class="cls_01_1DH8F"/><g><path stroke-linecap="round" stroke-miterlimit="10" d="M-1001.345,597.466c-2.184,0.985-4.605,1.534-7.154,1.534c-2.673,0-5.207-0.603-7.473-1.68" class="cls_01_1DH8F"/></g></g></svg>