<svg xmlns="http://www.w3.org/2000/svg" viewBox="0 0 21 21"><defs><style>.cls-1{fill:#333;}.cls-2,.cls-3,.cls-4{fill:none;stroke:#333;}.cls-2,.cls-3{stroke-linecap:round;}.cls-2,.cls-4{stroke-miterlimit:10;}.cls-3{stroke-linejoin:round;}</style></defs><title>Duration</title><g id="Livello_2" data-name="Livello 2"><g id="All"><path class="cls-1" d="M10.5,10.05a.45.45,0,1,1-.45.45.45.45,0,0,1,.45-.45m0-1A1.45,1.45,0,1,0,12,10.5,1.45,1.45,0,0,0,10.5,9.05Z"/><line class="cls-2" x1="10.5" y1="5.17" x2="10.5" y2="9.17"/><line class="cls-2" x1="15.17" y1="10.5" x2="11.83" y2="10.5"/><line class="cls-3" x1="14.33" y1="3.86" x2="15.33" y2="2.13"/><circle class="cls-4" cx="10.5" cy="10.5" r="10"/><line class="cls-3" x1="17.14" y1="6.67" x2="18.87" y2="5.67"/><line class="cls-3" x1="18.17" y1="10.5" x2="20.17" y2="10.5"/><line class="cls-3" x1="17.14" y1="14.33" x2="18.87" y2="15.33"/><line class="cls-3" x1="14.33" y1="17.14" x2="15.33" y2="18.87"/><line class="cls-3" x1="10.5" y1="18.17" x2="10.5" y2="20.17"/><line class="cls-3" x1="6.67" y1="17.14" x2="5.67" y2="18.87"/><line class="cls-3" x1="3.86" y1="14.33" x2="2.13" y2="15.33"/><line class="cls-3" x1="2.83" y1="10.5" x2="0.83" y2="10.5"/><line class="cls-3" x1="3.86" y1="6.67" x2="2.13" y2="5.67"/><line class="cls-3" x1="6.67" y1="3.86" x2="5.67" y2="2.13"/><line class="cls-3" x1="10.5" y1="2.83" x2="10.5" y2="0.83"/></g></g></svg>