<svg xmlns="http://www.w3.org/2000/svg" xmlns:xlink="http://www.w3.org/1999/xlink" x="0px" y="0px" viewBox="-1074 563 37 37" enable-background="new -1074 563 37 37" xml:space="preserve" class="def_1dSvX"><g><g><g><g><g><path stroke-miterlimit="10" d="M-1065.739,576.766c-1.186,2.669-0.708,5.628,0.538,7.024c1.317,1.477,3.256,1.719,3.256,1.719h0.887c0,0,1.937-0.242,3.255-1.719c1.255-1.406,1.537-4.232,0.315-6.952L-1065.739,576.766z" class="cls_01_3l1C1"/></g></g></g></g><ellipse stroke-miterlimit="10" cx="-1051.321" cy="591.337" rx="1.608" ry="1.602" class="cls_01_3l1C1"/><ellipse stroke-miterlimit="10" cx="-1044.163" cy="584.229" rx="1.804" ry="1.797" class="cls_01_3l1C1"/><path stroke-miterlimit="10" d="M-1043.864,594.996c0,0-0.626-0.548-0.677-0.578c-0.841-0.502-1.404-1.418-1.404-2.466c0-1.586,1.291-2.872,2.883-2.872c1.057,0,1.967,0.861,3.049,1.515" class="cls_01_3l1C1"/><path stroke-miterlimit="10" d="M-1054.573,599l2.643-13.078c0,0,1.369,0.18,1.948-1.229s-0.018-2.936-0.983-3.127c0.322-1.955,0.423-2.433,0.423-2.433l2.265-4.03h9l-0.098-0.41c-2.656-6.255-8.876-10.692-16.125-10.692c-9.665,0-17.5,7.779-17.5,17.405c0,6.842,4.087,12.8,9.85,15.655c0.46,0.26,0.386-0.927,0.386-1.723c0-2.955,0-8.006,0-8.006s-2.153,0.04-4.04-2.075c-2.262-2.533-2.737-7.032,1.147-15.357h4.168h4.168c3.885,8.325,3.624,12.824,1.364,15.357c-1.887,2.115-3.882,2.075-3.882,2.075s0,5.051,0,8.006c0,1.634-0.104,2.868,0.313,2.984c1.316,0.366,2.721,0.488,4.143,0.488c4.262,0,8.109-1.517,11.144-4.039c0.059-0.049,0.297-0.462,0.355-0.512" class="cls_01_3l1C1"/><path stroke-miterlimit="10" d="M-1050.852,579.265h12.313l0.367,0.026c0.113,0.802,0.172,1.335,0.172,2.168c0,3.25-0.893,6.252-2.448,8.856" class="cls_01_3l1C1"/></g></svg>