<svg xmlns="http://www.w3.org/2000/svg" viewBox="0 0 36 36" class="tc-svg-icon"><path d="M31.17 18.614V8.362c0-1.922-1.229-3.106-3.24-3.106h-3.879v-1.43c0-.446-.377-.826-.873-.826s-.852.38-.852.826v1.43H9.866v-1.43c0-.446-.378-.826-.874-.826s-.852.38-.852.826v1.43H4.286C1.852 5.256 1 6.933 1 8.362V26.23c0 1.879 1.254 3.062 3.286 3.062h15.417C21.168 31.504 23.746 33 26.723 33 31.289 33 35 29.492 35 25.18c0-2.768-1.535-5.18-3.83-6.566zM2.726 8.362c0-1.477 1.183-1.477 1.561-1.477h3.83v1.408c0 .446.38.826.876.826s.874-.356.874-.826V6.886h12.46v1.477c0 .445.381.826.877.826s.873-.358.873-.826V6.886h3.881c.73 0 1.488.18 1.488 1.477v3.596H2.726V8.362zM18.45 25.184c0 .867.188 1.695.472 2.479H4.286c-1.37 0-1.561-.76-1.561-1.408V13.61H29.42v4.244a8.3 8.3 0 00-2.697-.469c-4.561-.021-8.272 3.485-8.272 7.796v.003zm13.31-2.637l-6.076 7.059a1.237 1.237 0 01-.828.4h-.047c-.307 0-.59-.111-.803-.311l-3.025-2.861a1.027 1.027 0 010-1.521 1.176 1.176 0 011.605 0l2.129 2.014 5.273-6.143a1.151 1.151 0 011.584-.156c.494.378.569 1.048.188 1.519z"/></svg>