<svg xmlns="http://www.w3.org/2000/svg" viewBox="0 0 24 24" class="tc-svg-icon"><path d="M6.556 12.667a.889.889 0 100 1.777.889.889 0 000-1.777zm3.555 0a.889.889 0 100 1.777.889.889 0 000-1.777zm7.373 2.374l-1.533 1.603-.644-.536a.75.75 0 00-.96 1.153l1.182.983a.747.747 0 001.022-.058l2.017-2.108a.75.75 0 00-1.084-1.037z"/><path d="M17.972 11.465V6.667a2.753 2.753 0 00-2.75-2.75h-.806V3a.75.75 0 00-1.5 0v.916h-5.61V3a.75.75 0 00-1.5 0v.916H5a2.753 2.753 0 00-2.75 2.75V15A3.754 3.754 0 006 18.75h5.797c.85 1.757 2.634 2.982 4.713 2.982a5.256 5.256 0 005.25-5.25c0-2.384-1.607-4.38-3.788-5.017zM5 5.417h10.222c.69 0 1.25.56 1.25 1.25V8.36H3.75V6.666c0-.689.56-1.25 1.25-1.25zM6 17.25c-1.24 0-2.25-1.01-2.25-2.25V9.861h12.722v1.375a5.253 5.253 0 00-5.212 5.246c0 .263.04.515.078.768H6zm10.51 2.982c-2.068 0-3.75-1.682-3.75-3.75s1.682-3.75 3.75-3.75 3.75 1.682 3.75 3.75-1.682 3.75-3.75 3.75z"/></svg>