<svg xmlns="http://www.w3.org/2000/svg" xmlns:xlink="http://www.w3.org/1999/xlink" width="86" height="87" viewBox="0 0 86 87">
    <defs>
        <path id="c71anckuma" d="M77.674 33.964l-.061 1.263c-.123 2.53-.238 5.095-.238 7.655 0 21.331-17.294 38.626-38.626 38.626C17.417 81.508.122 64.213.122 42.882l.002-1.203C.14 33.087.42 21.01 4.282 12.559 7.646 5.2 22.088.674 35.246 0h8.325c35.248 1.287 34.938 16.689 34.103 33.965"/>
    </defs>
    <g fill="none" fill-rule="evenodd">
        <g>
            <g transform="translate(-72 -575) translate(72 575)">
                <path fill="#FFFFFE" d="M81.468 42.882c0 21.331-17.293 38.626-38.626 38.626-21.331 0-38.626-17.295-38.626-38.626 0-21.333 17.295-38.626 38.626-38.626 21.333 0 38.626 17.293 38.626 38.626"/>
                <g transform="translate(4.094)">
                    <mask id="m481ikybfb" fill="#fff">
                        <use xlink:href="#c71anckuma"/>
                    </mask>
                    <path fill="#DBDBDB" d="M21.863 77.63L46.2 67.961c-.021.34-.032.68-.032 1.026 0 .509.024 1.013.07 1.51l-21.272 8.479c-1.057-.404-2.093-.853-3.103-1.346z" mask="url(#m481ikybfb)"/>
                    <path fill="#C4C5C0" d="M.462 30.431c.2-2.8.516-5.652 1.018-8.412l6.6-2.623c-2.363 3.081-4.272 6.53-5.627 10.244l-1.991.791M47.215 5.186c-.743-.166-1.492-.311-2.25-.433.234-.071.472-.104.707-.104.561 0 1.107.192 1.543.537" mask="url(#m481ikybfb)"/>
                    <path fill="#C4C5C0" d="M2.453 29.64c1.355-3.713 3.264-7.163 5.627-10.244L44.767 4.822c.065-.026.132-.05.198-.069.758.122 1.507.267 2.25.433.328.26.594.604.758 1.019l1.842 4.62L2.453 29.64" mask="url(#m481ikybfb)"/>
                    <path fill="#FCFCFC" d="M68.688 59.027L.973 85.93c-1.213.48-2.598-.116-3.08-1.329l-18.237-45.904L51.78 10.044l18.238 45.903c.481 1.214-.117 2.599-1.33 3.08" mask="url(#m481ikybfb)"/>
                    <path fill="#FC6C4F" d="M51.78 10.044l-2.732-6.878c-.501-1.26-1.944-1.883-3.205-1.383l-67.536 26.831c-1.557.701-1.885 1.945-1.383 3.205l2.732 6.878L51.78 10.044" mask="url(#m481ikybfb)"/>
                    <path fill="#FFFFFE" d="M7.906 19.53c.368.926-.085 1.973-1.01 2.34-.925.37-1.972-.084-2.34-1.008-.368-.926.085-1.974 1.01-2.342.924-.368 1.973.084 2.34 1.01M16.892 15.915c.368.925-.085 1.972-1.01 2.34-.924.368-1.972-.085-2.34-1.01-.368-.924.084-1.973 1.01-2.34.925-.368 1.973.084 2.34 1.01M25.88 12.3c.366.924-.086 1.973-1.011 2.34-.926.367-1.973-.084-2.34-1.01-.37-.925.084-1.974 1.008-2.34.925-.369 1.974.084 2.342 1.01M35.1 8.683c.368.926-.084 1.975-1.009 2.342-.925.367-1.974-.085-2.34-1.01-.368-.925.084-1.973 1.009-2.341.925-.367 1.973.084 2.34 1.01M44.323 5.304c.367.925-.084 1.974-1.01 2.342-.925.366-1.973-.085-2.341-1.01-.366-.926.084-1.974 1.01-2.34.925-.368 1.973.083 2.341 1.008" mask="url(#m481ikybfb)"/>
                    <path fill="#38718E" d="M6.714 20.898l-.353.14c-.483.19-1.035-.046-1.226-.53L3.305 15.9c-.192-.483.046-1.035.528-1.226l.353-.14c.483-.192 1.035.046 1.227.529l1.83 4.608c.191.482-.047 1.035-.53 1.227M15.7 17.282l-.352.14c-.483.192-1.035-.046-1.226-.528l-1.832-4.61c-.192-.483.047-1.034.529-1.226l.353-.14c.482-.192 1.034.046 1.226.529l1.83 4.609c.193.483-.045 1.035-.528 1.226M24.686 13.667l-.352.14c-.483.192-1.034-.046-1.226-.529L21.277 8.67c-.193-.484.045-1.035.528-1.227l.353-.14c.482-.19 1.034.046 1.227.529l1.83 4.61c.192.483-.045 1.034-.529 1.226M33.909 10.051l-.353.14c-.482.192-1.034-.046-1.226-.529L30.5 5.054c-.192-.482.046-1.034.529-1.227l.352-.14c.483-.19 1.035.046 1.226.53l1.831 4.608c.193.483-.046 1.035-.528 1.226M43.131 6.672l-.352.14c-.483.192-1.035-.046-1.227-.528l-1.832-4.61c-.19-.482.046-1.034.53-1.227l.352-.14c.483-.19 1.034.046 1.226.53l1.832 4.61c.192.482-.046 1.034-.529 1.225" mask="url(#m481ikybfb)"/>
                    <path fill="#1D5A70" d="M6.163 20.021c-.472.188-.994.06-1.331-.277l.233.588c.23.58.892.866 1.472.635.58-.23.866-.893.636-1.472l-.234-.589c-.014.48-.306.93-.776 1.115M15.149 16.407c-.472.186-.993.06-1.33-.278l.232.589c.23.579.893.864 1.473.634.58-.23.866-.892.635-1.472l-.234-.589c-.013.479-.306.928-.776 1.116M24.134 12.791c-.472.188-.992.061-1.33-.278l.232.59c.231.579.894.864 1.474.635.579-.231.866-.893.636-1.473l-.235-.59c-.013.479-.306.93-.777 1.116M33.356 9.175c-.471.188-.991.061-1.331-.277l.235.588c.23.58.893.866 1.473.636.578-.231.866-.893.635-1.473l-.235-.588c-.014.478-.305.928-.777 1.114M42.578 5.797c-.47.188-.991.06-1.33-.28l.234.59c.23.58.893.866 1.473.636.579-.23.865-.893.635-1.473l-.235-.59c-.013.479-.305.93-.777 1.117" mask="url(#m481ikybfb)"/>
                    <path fill="#EF5237" d="M51.777 10.034L51.294 8.822 -20.83 37.476 -20.348 38.688 51.777 10.034" mask="url(#m481ikybfb)"/>
                    <path fill="#ECF0ED" d="M66.139 55.923L2.252 81.304 -14.484 39.177 49.403 13.795 66.139 55.923" mask="url(#m481ikybfb)"/>
                    <path fill="#CCCEC8" d="M66.139 55.923L66.047 55.693 2.39 80.983 -14.164 39.315 49.264 14.117 65.91 56.014 66.139 55.923 66.047 55.693 66.139 55.923 66.369 55.831 49.541 13.475 -14.806 39.038 2.113 81.624 66.46 56.061 66.369 55.831 66.139 55.923" mask="url(#m481ikybfb)"/>
                    <path fill="#F2F5F6" d="M32.307 50.181L35.638 58.565 44.971 54.856 41.64 46.472 32.307 50.181" mask="url(#m481ikybfb)"/>
                    <path fill="#CCCEC8" d="M32.307 50.181L32.077 50.272 35.5 58.885 45.293 54.995 41.779 46.152 31.987 50.042 32.077 50.272 32.307 50.181 32.398 50.409 41.503 46.792 44.651 54.718 35.777 58.245 32.537 50.089 32.307 50.181 32.398 50.409 32.307 50.181" mask="url(#m481ikybfb)"/>
                    <path fill="#F2F5F6" d="M13.64 57.596L16.972 65.982 26.304 62.274 22.973 53.889 13.64 57.596" mask="url(#m481ikybfb)"/>
                    <path fill="#CCCEC8" d="M13.64 57.596L13.41 57.687 16.833 66.302 26.625 62.412 23.111 53.568 13.319 57.459 13.41 57.687 13.64 57.596 13.731 57.826 22.835 54.209 25.984 62.135 17.11 65.66 13.869 57.506 13.64 57.596 13.731 57.826 13.64 57.596" mask="url(#m481ikybfb)"/>
                    <path fill="#F2F5F6" d="M44.971 54.856L54.306 51.149 50.975 42.764 41.64 46.472 44.971 54.856" mask="url(#m481ikybfb)"/>
                    <path fill="#DADADA" d="M44.971 54.856L45.063 55.086 54.626 51.287 51.113 42.444 41.32 46.333 44.833 55.178 45.063 55.086 44.971 54.856 45.201 54.765 41.961 46.61 50.836 43.085 53.984 51.011 44.88 54.628 44.971 54.856 45.201 54.765 44.971 54.856" mask="url(#m481ikybfb)"/>
                    <path fill="#F2F5F6" d="M22.973 53.889L26.304 62.274 35.638 58.565 32.307 50.181 22.973 53.889M41.64 46.472L50.975 42.764 47.643 34.38 38.31 38.087 41.64 46.472" mask="url(#m481ikybfb)"/>
                    <path fill="#DADADA" d="M41.64 46.472L41.732 46.702 51.295 42.903 47.782 34.06 37.989 37.949 41.503 46.792 41.732 46.702 41.64 46.472 41.87 46.381 38.63 38.226 47.505 34.7 50.654 42.626 41.55 46.242 41.64 46.472 41.87 46.381 41.64 46.472" mask="url(#m481ikybfb)"/>
                    <path fill="#F2F5F6" d="M34.979 29.703L38.31 38.087 47.643 34.38 44.311 25.995 34.979 29.703" mask="url(#m481ikybfb)"/>
                    <path fill="#CCCEC8" d="M34.979 29.703L34.749 29.793 38.172 38.408 47.965 34.518 44.45 25.675 34.658 29.564 34.749 29.793 34.979 29.703 35.07 29.932 44.173 26.315 47.323 34.241 38.448 37.766 35.208 29.612 34.979 29.703 35.07 29.932 34.979 29.703" mask="url(#m481ikybfb)"/>
                    <path fill="#F2F5F6" d="M52.895 22.585L49.403 13.795 40.82 17.206 44.311 25.995 52.895 22.585" mask="url(#m481ikybfb)"/>
                    <path fill="#DADADA" d="M52.895 22.585L53.125 22.493 49.541 13.475 40.5 17.067 44.173 26.315 53.217 22.723 53.125 22.493 52.895 22.585 52.804 22.356 44.45 25.675 41.141 17.344 49.264 14.117 52.667 22.676 52.895 22.585 52.804 22.356 52.895 22.585" mask="url(#m481ikybfb)"/>
                    <path fill="#F2F5F6" d="M47.643 34.38L56.227 30.969 52.895 22.585 44.311 25.995 47.643 34.38M4.307 61.305L7.638 69.689 16.972 65.982 13.64 57.596 4.307 61.305" mask="url(#m481ikybfb)"/>
                    <path fill="#F2F5F6" d="M10.308 49.211L0.975 52.92 4.307 61.305 13.64 57.596 10.308 49.211" mask="url(#m481ikybfb)"/>
                    <path fill="#CCCEC8" d="M10.308 49.211L10.217 48.983 0.654 52.782 4.169 61.626 13.96 57.734 10.447 48.891 10.217 48.983 10.308 49.211 10.08 49.303 13.319 57.459 4.445 60.984 1.295 53.059 10.4 49.441 10.308 49.211 10.08 49.303 10.308 49.211" mask="url(#m481ikybfb)"/>
                    <path fill="#ECF0ED" d="M19.643 45.504L22.973 53.889 32.307 50.181 28.976 41.796 19.643 45.504" mask="url(#m481ikybfb)"/>
                    <path fill="#CCCEC8" d="M19.643 45.504L19.413 45.595 22.835 54.209 32.627 50.319 29.114 41.475 19.322 45.366 19.413 45.595 19.643 45.504 19.733 45.734 28.837 42.116 31.987 50.042 23.111 53.568 19.871 45.413 19.643 45.504 19.733 45.734 19.643 45.504" mask="url(#m481ikybfb)"/>
                    <path fill="#F2F5F6" d="M38.31 38.087L34.979 29.703 25.645 33.412 28.976 41.796 38.31 38.087" mask="url(#m481ikybfb)"/>
                    <path fill="#DADADA" d="M38.31 38.087L38.539 37.996 35.117 29.382 25.325 33.273 28.837 42.116 38.63 38.226 38.539 37.996 38.31 38.087 38.219 37.858 29.114 41.475 25.966 33.549 34.84 30.023 38.08 38.179 38.31 38.087 38.219 37.858 38.31 38.087" mask="url(#m481ikybfb)"/>
                    <path fill="#F2F5F6" d="M10.308 49.211L13.64 57.596 22.973 53.889 19.643 45.504 10.308 49.211" mask="url(#m481ikybfb)"/>
                    <path fill="#DADADA" d="M10.308 49.211L10.08 49.303 13.501 57.917 23.294 54.027 19.78 45.184 9.988 49.073 10.08 49.303 10.308 49.211 10.4 49.441 19.504 45.825 22.653 53.751 13.778 57.276 10.538 49.12 10.308 49.211 10.4 49.441 10.308 49.211" mask="url(#m481ikybfb)"/>
                    <path fill="#F2F5F6" d="M32.307 50.181L41.64 46.472 38.31 38.087 28.976 41.796 32.307 50.181M44.311 25.995L40.82 17.206 31.487 20.914 34.979 29.703 44.311 25.995M6.977 40.827L-2.356 44.535.975 52.92 10.308 49.211 6.977 40.827" mask="url(#m481ikybfb)"/>
                    <path fill="#DADADA" d="M6.977 40.827L6.887 40.597 -2.677 44.397 0.837 53.24 10.63 49.35 7.116 40.507 6.887 40.597 6.977 40.827 6.748 40.918 9.988 49.073 1.113 52.6 -2.036 44.674 7.069 41.057 6.977 40.827 6.748 40.918 6.977 40.827" mask="url(#m481ikybfb)"/>
                    <path fill="#F2F5F6" d="M19.643 45.504L16.312 37.118 6.977 40.827 10.308 49.211 19.643 45.504" mask="url(#m481ikybfb)"/>
                    <path fill="#F2F5F6" d="M28.976 41.796L25.645 33.412 16.312 37.118 19.643 45.504 28.976 41.796M7.638 69.689L10.888 77.872 20.223 74.165 16.972 65.982 7.638 69.689" mask="url(#m481ikybfb)"/>
                    <path fill="#DADADA" d="M7.638 69.689L7.409 69.78 10.75 78.192 20.543 74.303 17.11 65.66 7.317 69.552 7.409 69.78 7.638 69.689 7.729 69.919 16.833 66.302 19.901 74.026 11.027 77.551 7.867 69.599 7.638 69.689 7.729 69.919 7.638 69.689" mask="url(#m481ikybfb)"/>
                    <path fill="#F2F5F6" d="M44.971 54.856L48.222 63.041 57.556 59.332 54.306 51.149 44.971 54.856" mask="url(#m481ikybfb)"/>
                    <path fill="#DADADA" d="M44.971 54.856L44.743 54.948 48.084 63.361 57.877 59.469 54.444 50.829 44.651 54.718 44.743 54.948 44.971 54.856 45.063 55.086 54.167 51.47 57.236 59.194 48.361 62.719 45.201 54.765 44.971 54.856 45.063 55.086 44.971 54.856" mask="url(#m481ikybfb)"/>
                    <path fill="#F2F5F6" d="M26.304 62.274L29.556 70.456 38.89 66.747 35.638 58.565 26.304 62.274" mask="url(#m481ikybfb)"/>
                    <path fill="#DADADA" d="M26.304 62.274L26.075 62.365 29.417 70.776 39.21 66.886 35.777 58.245 25.984 62.135 26.075 62.365 26.304 62.274 26.395 62.503 35.5 58.885 38.569 66.609 29.694 70.136 26.534 62.183 26.304 62.274 26.395 62.503 26.304 62.274" mask="url(#m481ikybfb)"/>
                    <path fill="#F2F5F6" d="M16.972 65.982L20.223 74.165 29.556 70.456 26.304 62.274 16.972 65.982M35.638 58.565L38.89 66.747 48.222 63.041 44.971 54.856 35.638 58.565" mask="url(#m481ikybfb)"/>
                    <path fill="#DADADA" d="M35.638 58.565L35.408 58.656 38.752 67.068 48.542 63.178 45.11 54.536 35.317 58.427 35.408 58.656 35.638 58.565 35.73 58.795 44.833 55.178 47.902 62.902 39.028 66.427 35.867 58.474 35.638 58.565 35.73 58.795 35.638 58.565" mask="url(#m481ikybfb)"/>
                    <path fill="#F2F5F6" d="M47.643 34.38L50.975 42.764 59.558 39.354 56.227 30.969 47.643 34.38" mask="url(#m481ikybfb)"/>
                    <path fill="#F2F5F6" d="M54.306 51.149L62.889 47.739 59.558 39.354 50.975 42.764 54.306 51.149" mask="url(#m481ikybfb)"/>
                    <path fill="#DADADA" d="M54.306 51.149L54.397 51.379 63.209 47.877 59.695 39.034 50.654 42.626 54.167 51.47 54.397 51.379 54.306 51.149 54.534 51.059 51.295 42.903 59.419 39.675 62.568 47.601 54.214 50.92 54.306 51.149 54.534 51.059 54.306 51.149" mask="url(#m481ikybfb)"/>
                    <path fill="#F2F5F6" d="M57.556 59.332L66.139 55.923 62.889 47.739 54.306 51.149 57.556 59.332" mask="url(#m481ikybfb)"/>
                    <path fill="#DADADA" d="M57.556 59.332L57.647 59.561 66.46 56.061 63.026 47.418 53.985 51.011 57.418 59.652 57.647 59.561 57.556 59.332 57.785 59.241 54.626 51.287 62.75 48.06 65.819 55.784 57.465 59.102 57.556 59.332 57.785 59.241 57.556 59.332" mask="url(#m481ikybfb)"/>
                    <path fill="#F2F5F6" d="M16.312 37.118L12.82 28.33 3.486 32.037 6.977 40.827 16.312 37.118" mask="url(#m481ikybfb)"/>
                    <path fill="#DADADA" d="M16.312 37.118L16.54 37.027 12.958 28.01 3.166 31.899 6.84 41.147 16.632 37.257 16.54 37.027 16.312 37.118 16.22 36.889 7.116 40.507 3.807 32.176 12.681 28.651 16.082 37.21 16.312 37.118 16.22 36.889 16.312 37.118" mask="url(#m481ikybfb)"/>
                    <path fill="#FFFFFE" d="M-0.999 73.12L2.252 81.304 10.888 77.872 7.638 69.689 -0.999 73.12" mask="url(#m481ikybfb)"/>
                    <path fill="#CCCEC8" d="M-0.999 73.12L-1.228 73.211 2.113 81.624 11.209 78.01 7.776 69.369 -1.32 72.983 -1.228 73.211 -0.999 73.12 -0.908 73.35 7.5 70.01 10.568 77.734 2.39 80.983 -0.77 73.03 -0.999 73.12 -0.908 73.35 -0.999 73.12" mask="url(#m481ikybfb)"/>
                    <path fill="#F2F5F6" d="M34.979 29.703L31.487 20.914 22.153 24.622 25.645 33.412 34.979 29.703" mask="url(#m481ikybfb)"/>
                    <path fill="#F2F5F6" d="M25.645 33.412L22.153 24.622 12.82 28.33 16.312 37.118 25.645 33.412" mask="url(#m481ikybfb)"/>
                    <path fill="#DADADA" d="M35.208 29.612L31.625 20.593 21.833 24.484 25.507 33.732 35.299 29.84 35.208 29.612 34.979 29.703 34.888 29.473 25.783 33.09 22.474 24.759 31.348 21.235 34.749 29.793 34.979 29.703 34.888 29.473 34.979 29.703z" mask="url(#m481ikybfb)"/>
                    <path fill="#DADADA" d="M25.645 33.412L25.875 33.32 22.292 24.301 12.499 28.192 16.173 37.439 25.966 33.549 25.875 33.32 25.645 33.412 25.555 33.182 16.45 36.798 13.14 28.468 22.016 24.942 25.416 33.502 25.645 33.412 25.555 33.182 25.645 33.412" mask="url(#m481ikybfb)"/>
                    <path fill="#F2F5F6" d="M6.977 40.827L3.486 32.037 -5.847 35.746 -2.356 44.535 6.977 40.827" mask="url(#m481ikybfb)"/>
                    <path fill="#FFFFFE" d="M-2.356 44.535L-10.993 47.966 -7.663 56.351 0.975 52.92 -2.356 44.535" mask="url(#m481ikybfb)"/>
                    <path fill="#CCCEC8" d="M-2.356 44.535L-2.447 44.306 -11.314 47.828 -7.8 56.672 1.295 53.059 -2.217 44.214 -2.447 44.306 -2.356 44.535 -2.586 44.627 0.654 52.782 -7.524 56.031 -10.673 48.105 -2.265 44.764 -2.356 44.535 -2.586 44.627 -2.356 44.535" mask="url(#m481ikybfb)"/>
                    <path fill="#FFFFFE" d="M4.307 61.305L-4.332 64.736 -0.999 73.12 7.638 69.689 4.307 61.305" mask="url(#m481ikybfb)"/>
                    <path fill="#CCCEC8" d="M4.307 61.305L4.216 61.076 -4.652 64.598 -1.138 73.441 7.959 69.828 4.445 60.984 4.216 61.076 4.307 61.305 4.078 61.396 7.317 69.552 -0.861 72.8 -4.01 64.874 4.398 61.534 4.307 61.305 4.078 61.396 4.307 61.305" mask="url(#m481ikybfb)"/>
                    <path fill="#FFFFFE" d="M0.975 52.92L-7.663 56.351 -4.332 64.736 4.307 61.305 0.975 52.92" mask="url(#m481ikybfb)"/>
                    <path fill="#CCCEC8" d="M0.975 52.92L0.884 52.69 -7.983 56.212 -4.47 65.057 4.628 61.443 1.113 52.6 0.884 52.69 0.975 52.92 0.745 53.011 3.986 61.166 -4.193 64.415 -7.341 56.489 1.066 53.15 0.975 52.92 0.745 53.011 0.975 52.92" mask="url(#m481ikybfb)"/>
                    <path fill="#5DB570" d="M1.726 59.144c.281.705-.063 1.502-.767 1.783-.706.28-1.505-.064-1.784-.77-.28-.704.064-1.502.768-1.782.706-.28 1.505.064 1.783.769M5.06 67.535c.28.705-.064 1.504-.768 1.784s-1.504-.065-1.784-.77c-.28-.704.064-1.503.77-1.783.705-.28 1.503.063 1.782.77M8.394 75.926c.28.705-.064 1.503-.768 1.783-.705.281-1.503-.064-1.784-.769-.28-.704.064-1.503.77-1.783.704-.28 1.503.064 1.782.769" mask="url(#m481ikybfb)"/>
                    <path fill="#69BC6B" d="M4.38 38.66c.279.704-.065 1.503-.77 1.783-.705.28-1.503-.064-1.783-.77-.281-.704.065-1.503.769-1.783.705-.28 1.503.064 1.783.77M7.713 47.05c.279.706-.065 1.503-.77 1.784-.705.28-1.502-.065-1.783-.77-.28-.705.065-1.502.77-1.783.705-.279 1.502.065 1.783.77M11.046 55.441c.28.705-.064 1.504-.769 1.784-.705.28-1.503-.064-1.783-.77-.28-.705.065-1.503.77-1.783.703-.28 1.502.064 1.782.77M14.38 63.833c.28.705-.065 1.502-.77 1.783-.704.279-1.502-.065-1.782-.77-.28-.703.064-1.502.769-1.783.704-.28 1.503.065 1.783.77M17.714 72.223c.28.705-.065 1.504-.77 1.784-.705.28-1.502-.064-1.783-.77-.279-.704.065-1.503.77-1.781.704-.281 1.502.063 1.783.767M13.698 34.957c.28.705-.063 1.503-.768 1.783-.706.28-1.505-.064-1.784-.769-.28-.705.065-1.503.768-1.783.705-.281 1.505.065 1.784.769M17.032 43.348c.28.704-.064 1.503-.77 1.784-.704.28-1.503-.065-1.782-.77-.28-.705.063-1.503.768-1.784.706-.278 1.504.066 1.784.77M20.366 51.74c.28.705-.064 1.502-.77 1.782-.704.28-1.503-.064-1.783-.769-.28-.704.064-1.502.77-1.783.705-.28 1.503.064 1.783.77M23.699 60.13c.28.705-.065 1.503-.768 1.784-.705.28-1.504-.065-1.784-.77-.28-.705.063-1.503.77-1.783.704-.28 1.503.065 1.782.77M27.034 68.521c.278.706-.066 1.504-.77 1.783-.705.28-1.503-.064-1.784-.768-.28-.705.064-1.504.77-1.784.705-.28 1.503.064 1.784.769M23.018 31.254c.28.705-.065 1.504-.77 1.784-.704.28-1.502-.065-1.783-.77-.28-.704.065-1.503.77-1.783.704-.28 1.502.065 1.783.77M26.351 39.645c.281.706-.065 1.505-.769 1.783-.704.281-1.503-.063-1.783-.768-.28-.705.064-1.504.769-1.783.705-.28 1.503.064 1.783.768M29.685 48.192c.28.705-.065 1.503-.77 1.784-.705.28-1.502-.064-1.783-.77-.279-.705.065-1.503.77-1.783.705-.28 1.502.065 1.783.77M32.551 56.437c.28.704-.065 1.502-.77 1.783-.704.28-1.502-.065-1.783-.77-.28-.704.065-1.503.77-1.782.705-.28 1.503.064 1.783.769M36.352 64.82c.28.704-.064 1.502-.77 1.782-.705.28-1.502-.064-1.782-.769-.28-.705.064-1.502.769-1.783.705-.28 1.502.065 1.783.77M32.337 27.552c.28.705-.064 1.504-.769 1.783-.705.281-1.504-.064-1.783-.77-.28-.703.064-1.502.768-1.782.706-.28 1.504.064 1.784.769M35.67 35.944c.28.704-.063 1.503-.768 1.782-.705.28-1.504-.064-1.783-.768-.281-.705.063-1.504.768-1.783.705-.281 1.504.063 1.784.769M39.005 44.334c.279.705-.065 1.504-.77 1.783-.705.281-1.503-.064-1.784-.768-.28-.705.065-1.504.77-1.784.705-.28 1.503.065 1.784.769M42.338 52.726c.28.704-.064 1.503-.77 1.782-.704.28-1.503-.063-1.783-.768-.28-.706.066-1.505.77-1.783.704-.281 1.503.064 1.783.769M41.5 24.161c.28.705-.064 1.504-.768 1.784-.705.28-1.504-.064-1.784-.77-.28-.705.064-1.503.77-1.783.704-.28 1.503.065 1.781.77M44.835 32.553c.28.705-.066 1.502-.77 1.783-.704.279-1.503-.065-1.783-.77-.28-.704.063-1.502.77-1.783.704-.28 1.503.065 1.783.77M48.169 40.943c.278.705-.066 1.503-.77 1.784-.705.28-1.503-.064-1.784-.77-.28-.705.065-1.503.77-1.782.705-.28 1.503.064 1.784.768M51.501 49.335c.28.705-.064 1.503-.768 1.783-.705.28-1.504-.065-1.784-.77-.28-.703.064-1.502.77-1.783.704-.28 1.503.064 1.782.77M50.3 20.51c.279.705-.065 1.504-.77 1.782-.705.281-1.502-.063-1.783-.767-.28-.706.065-1.505.77-1.784.704-.28 1.502.063 1.783.768M53.633 28.9c.28.706-.064 1.504-.769 1.784-.705.28-1.504-.064-1.783-.769-.281-.705.065-1.503.769-1.783.704-.281 1.503.065 1.783.769M56.967 37.292c.28.704-.065 1.504-.77 1.784-.705.28-1.503-.064-1.783-.77-.28-.705.065-1.503.77-1.783.704-.28 1.502.064 1.783.77M60.301 45.684c.28.705-.065 1.502-.77 1.783-.705.279-1.503-.065-1.783-.77-.28-.705.065-1.502.77-1.783.703-.28 1.502.064 1.783.77" mask="url(#m481ikybfb)"/>
                    <path fill="#DADADA" d="M47.643 34.38L47.735 34.61 56.547 31.108 53.034 22.265 43.991 25.857 47.505 34.7 47.735 34.61 47.643 34.38 47.873 34.288 44.632 26.134 52.757 22.905 55.905 30.831 47.552 34.151 47.643 34.38 47.873 34.288 47.643 34.38" mask="url(#m481ikybfb)"/>
                    <path fill="#DADADA" d="M47.643 34.38L47.415 34.471 50.836 43.085 59.878 39.492 56.365 30.649 47.323 34.241 47.415 34.471 47.643 34.38 47.735 34.61 56.088 31.291 59.237 39.216 51.113 42.444 47.873 34.288 47.643 34.38 47.735 34.61 47.643 34.38M44.311 25.995L44.541 25.904 40.958 16.886 31.165 20.776 34.841 30.023 44.632 26.134 44.541 25.904 44.311 25.995 44.22 25.765 35.117 29.382 31.807 21.053 40.681 17.526 44.082 26.086 44.311 25.995 44.22 25.765 44.311 25.995M22.973 53.889L22.744 53.98 26.165 62.594 35.958 58.704 32.445 49.859 22.653 53.751 22.744 53.98 22.973 53.889 23.064 54.118 32.169 50.501 35.317 58.427 26.442 61.953 23.203 53.798 22.973 53.889 23.064 54.118 22.973 53.889" mask="url(#m481ikybfb)"/>
                    <path fill="#DADADA" d="M32.307 50.181L32.398 50.409 41.961 46.61 38.448 37.766 28.656 41.657 32.169 50.501 32.398 50.409 32.307 50.181 32.537 50.089 29.297 41.934 38.172 38.408 41.32 46.334 32.216 49.951 32.307 50.181 32.537 50.089 32.307 50.181" mask="url(#m481ikybfb)"/>
                    <path fill="#DADADA" d="M28.976 41.796L29.206 41.705 25.783 33.09 15.99 36.98 19.504 45.825 29.297 41.934 29.206 41.705 28.976 41.796 28.885 41.566 19.78 45.184 16.632 37.257 25.507 33.732 28.747 41.886 28.976 41.796 28.885 41.566 28.976 41.796M4.307 61.305L4.078 61.396 7.5 70.01 17.292 66.119 13.778 57.276 3.986 61.166 4.078 61.396 4.307 61.305 4.398 61.534 13.501 57.917 16.651 65.843 7.776 69.369 4.536 61.213 4.307 61.305 4.398 61.534 4.307 61.305" mask="url(#m481ikybfb)"/>
                    <path fill="#DADADA" d="M19.643 45.504L19.871 45.413 16.45 36.798 6.657 40.688 10.17 49.532 19.963 45.642 19.871 45.413 19.643 45.504 19.551 45.275 10.447 48.891 7.298 40.965 16.173 37.439 19.413 45.595 19.643 45.504 19.551 45.275 19.643 45.504M16.972 65.982L16.742 66.072 20.084 74.485 29.876 70.594 26.442 61.953 16.651 65.843 16.742 66.072 16.972 65.982 17.063 66.21 26.165 62.594 29.236 70.317 20.36 73.843 17.201 65.89 16.972 65.982 17.063 66.21 16.972 65.982" mask="url(#m481ikybfb)"/>
                    <path fill="#DADADA" d="M6.977 40.827L7.207 40.736 3.624 31.717 -6.169 35.608 -2.494 44.856 7.298 40.965 7.207 40.736 6.977 40.827 6.887 40.597 -2.217 44.214 -5.527 35.885 3.348 32.359 6.748 40.918 6.977 40.827 6.887 40.597 6.977 40.827" mask="url(#m481ikybfb)"/>
                </g>
                <path fill="#DBDBDB" d="M66.28 85.005c-4.706 0-8.938-2.029-11.868-5.26 10.7-3.355 19.393-11.237 23.838-21.403 2.519 2.83 4.05 6.558 4.05 10.645 0 8.846-7.173 16.018-16.02 16.018"/>
                <path fill="#DBDBDB" d="M50.331 70.497l21.08-8.402c1.115-.443 1.986-1.433 1.604-3.176 1.055-.556 1.546-1.838 1.096-2.972l-.475-1.193c1.752.906 3.315 2.128 4.614 3.588C73.805 68.508 65.11 76.39 54.412 79.745c-2.262-2.494-3.748-5.703-4.08-9.248z"/>
                <path fill="#DBDBDB" d="M50.262 68.987c0-.345.01-.686.032-1.026l22.488-8.934c.081-.032.158-.068.233-.108.382 1.743-.49 2.733-1.604 3.176l-21.08 8.402c-.046-.497-.069-1.001-.069-1.51z"/>
                <path fill="#DBDBDB" d="M50.294 67.961c.092-1.455.378-2.858.833-4.183l19.142-7.604.284-.113-1.104-2.779c1.48.297 2.885.797 4.187 1.472l.475 1.193c.45 1.134-.041 2.416-1.096 2.972-.075.04-.152.076-.233.108l-22.488 8.934"/>
                <path fill="#A4A7A3" d="M51.127 63.778l1.05-.417.003-.001.456-.182 9.21-3.658 8.423-3.346-19.142 7.604m19.426-7.717l-.09-.23.09.23m-.09-.23l-.151-.377.15.377"/>
                <path fill="#DBDBDB" d="M52.454 62.72l-.421-1.062c1.614-3.133 4.232-5.664 7.427-7.17l1.87 4.706-8.876 3.525"/>
                <path fill="#A4A7A3" d="M52.636 63.178l-.603-1.52.421 1.061 8.876-3.525.181.458.23-.09.105-.042-9.21 3.658m8.053-5.594l-1.23-3.095v-.001l1.23 3.096"/>
                <path fill="#DBDBDB" d="M51.74 62.258l.255.644-.64.254c.12-.305.248-.605.385-.898z"/>
                <path fill="#DBDBDB" d="M51.127 63.777c.073-.209.148-.416.229-.621l.64-.254-.256-.644c.093-.203.191-.403.293-.6l.603 1.52-.456.182h-.002l-1.051.417"/>
                <path fill="#B9BDBA" d="M61.788 59.011l-1.878-4.726c1.953-.847 4.107-1.317 6.37-1.317.884 0 1.752.072 2.597.21l1.035 2.606-8.124 3.227"/>
                <path fill="#A4A7A3" d="M61.511 59.652l-2.051-5.164c.15-.07.299-.138.45-.203l1.878 4.726 8.124-3.227-1.035-2.607c.192.031.382.067.572.105l1.104 2.779-.284.113-8.423 3.346-.105.041-.23.091m.14-.32l.228-.091-.229.09"/>
                <path fill="#69BC6B" d="M67.121 82.16c-8.223 0-14.889-6.667-14.889-14.89 0-8.221 6.666-14.887 14.889-14.887 8.222 0 14.887 6.666 14.887 14.887 0 8.223-6.665 14.89-14.887 14.89z"/>
                <path fill="#FFFFFE" d="M82.008 67.27H80.94c0 3.82-1.546 7.269-4.048 9.773-2.504 2.503-5.952 4.047-9.771 4.048-3.82 0-7.268-1.545-9.773-4.048-2.503-2.504-4.047-5.953-4.048-9.773.001-3.818 1.545-7.267 4.048-9.77 2.505-2.504 5.953-4.048 9.773-4.05 3.819.002 7.267 1.546 9.771 4.05 2.502 2.503 4.048 5.952 4.048 9.77h2.135c0-8.81-7.142-15.954-15.954-15.955-8.813.001-15.956 7.144-15.957 15.955.001 8.813 7.144 15.956 15.957 15.957 8.812-.001 15.953-7.144 15.954-15.957h-1.067"/>
                <path fill="#FFFFFE" d="M57.786 68.258L65.552 75.549 76.351 62.68 73.83 60.564 65.268 70.768 60.039 65.859 57.786 68.258"/>
                <g fill="#FBA900" fill-rule="nonzero" opacity=".1" transform="translate(71.607 1.958)">
                    <circle cx="6.153" cy="5.652" r="3.951" transform="rotate(-46.31 6.153 5.652)"/>
                </g>
                <path fill="#FBA900" fill-rule="nonzero" d="M78.11 2.787c.015 2.496 1.814 4.623 4.273 5.051-2.497.179-4.505 2.124-4.763 4.614-.102-2.547-1.99-4.667-4.507-5.062 2.553-.14 4.649-2.07 4.998-4.603z"/>
                <g fill="#FBA900" fill-rule="nonzero" opacity=".1" transform="translate(76.947 19.222)">
                    <circle cx="4.891" cy="4.785" r="2.905" transform="rotate(-46.31 4.891 4.785)"/>
                </g>
                <path fill="#FBA900" fill-rule="nonzero" d="M79.5 21.358c1.314 1.292 3.367 1.454 4.869.385-1.204 1.396-1.24 3.453-.086 4.89-1.37-1.287-3.466-1.408-4.976-.288 1.255-1.4 1.336-3.495.192-4.987z"/>
                <circle cx="69.503" cy="29.769" r="1" fill="#FBA900" fill-rule="nonzero" transform="rotate(-46.31 69.503 29.769)"/>
                <g fill="#FBA900" fill-rule="nonzero" opacity=".1" transform="translate(6.465 74.575)">
                    <circle cx="6.395" cy="5.695" r="3.951" transform="rotate(-37.91 6.395 5.695)"/>
                </g>
                <path fill="#FBA900" fill-rule="nonzero" d="M8.249 80.06c2.496-.183 4.5-2.133 4.752-4.623.108 2.55 2.005 4.665 4.528 5.05-2.557.136-4.659 2.067-5.009 4.604-.025-2.488-1.821-4.603-4.271-5.03z"/>
                <circle cx="1.9" cy="69.877" r="1" fill="#FBA900" fill-rule="nonzero" transform="rotate(-37.91 1.9 69.877)"/>
            </g>
        </g>
    </g>
</svg>
