<svg xmlns="http://www.w3.org/2000/svg" viewBox="0 0 34.76 34"><defs><style>.cls-1{fill:#fff;}.cls-2{fill:none;stroke:#232323;stroke-linecap:round;stroke-linejoin:round;}.cls-3{fill:#69bc6b;}</style></defs><title>Risorsa 22</title><g id="Livello_2" data-name="Livello 2"><g id="Livello_1-2" data-name="Livello 1"><circle class="cls-1" cx="17.02" cy="17.02" r="16.52"/><path class="cls-2" d="M31.6,9.43,32,10a16.56,16.56,0,1,1-3.2-4.58l.64.69"/><path class="cls-3" d="M34.51,4.76a1.56,1.56,0,0,1-.22,2L16,25.5a1.28,1.28,0,0,1-1.95.05L6.74,18.2a1,1,0,0,1,0-1.36l1.58-1.59a1,1,0,0,1,1.36,0l4.61,4.59a1,1,0,0,0,1.37,0L31.45,3.87a1.59,1.59,0,0,1,2.15-.11A4,4,0,0,1,34.51,4.76Z"/></g></g></svg>