<svg xmlns="http://www.w3.org/2000/svg" viewBox="0 0 24 24" data-test="languagesSvg" class="tc-svg-icon"><path d="M17.986 14.11a.889.889 0 100 1.778.889.889 0 000-1.778zM7.13 11.663a.75.75 0 001.007-.335l1.335-2.67 1.358 2.674a.749.749 0 101.336-.68l-2.031-4a.75.75 0 00-.669-.41h-.002a.75.75 0 00-.669.415l-2 4a.75.75 0 00.336 1.006z"/><path d="M20.84 18.018a7.238 7.238 0 00.91-3.518c0-3.22-2.16-6.085-5.251-6.971-.01-.003-.02 0-.03-.002-.862-3.04-3.656-5.277-6.969-5.277-3.998 0-7.25 3.252-7.25 7.25 0 1.236.313 2.445.91 3.518l-.875 2.755A.749.749 0 003 16.75h4.619c.965 2.95 3.764 5 6.881 5H21a.75.75 0 00.715-.977l-.874-2.755zM4.613 12.53A5.733 5.733 0 013.75 9.5c0-3.17 2.58-5.75 5.75-5.75s5.75 2.58 5.75 5.75-2.58 5.75-5.75 5.75H4.025l.665-2.098a.75.75 0 00-.078-.622zm14.698 5.622l.665 2.098H14.5c-2.304 0-4.38-1.416-5.275-3.5H9.5c1.752 0 3.36-.625 4.615-1.663a.88.88 0 00.871.8.88.88 0 00.089-1.76A7.216 7.216 0 0016.75 9.5c0-.095-.01-.188-.014-.283 2.095.89 3.514 2.965 3.514 5.283a5.733 5.733 0 01-.862 3.03.75.75 0 00-.078.622z"/></svg>