<?xml version="1.0" encoding="utf-8"?>
<!-- Generator: Adobe Illustrator 17.0.0, SVG Export Plug-In . SVG Version: 6.00 Build 0)  -->
<!DOCTYPE svg PUBLIC "-//W3C//DTD SVG 1.1//EN" "http://www.w3.org/Graphics/SVG/1.1/DTD/svg11.dtd">
<svg version="1.1" id="Livello_1" xmlns="http://www.w3.org/2000/svg" xmlns:xlink="http://www.w3.org/1999/xlink" x="0px" y="0px"
	 width="45px" height="45px" viewBox="0 0 45 45" enable-background="new 0 0 45 45" xml:space="preserve">
<g>
	<path fill="#595959" d="M0.324,0.168v36.639h6.835v8.361l15.583-8.361h21.934V0.168H0.324z M42.748,34.878h-20.49L9.087,41.944
		v-7.066H2.252V2.096h40.495V34.878z"/>
	<path fill="#595959" d="M10.913,25.055c-1.643-0.149-1.862-0.322-1.368-1.781c0.322-0.897,0.598-1.781,0.919-2.666h4.781
		l1.195,3.287c0.276,0.839,0.103,0.988-1.368,1.161v0.678h5.229v-0.678c-1.436-0.138-1.758-0.322-2.379-2.137
		c-1.356-3.689-2.896-8.045-4.218-11.677l-0.666,0.218L8.58,22.791c-0.77,1.965-1.069,2.069-2.471,2.264v0.678h4.804V25.055z
		 M12.913,13.908h0.046l1.965,5.7h-4.08C11.522,17.758,12.211,15.827,12.913,13.908z"/>
	<path fill="#595959" d="M23.266,24.328c0.419,0.365,1.04,1.004,1.332,1.405c2.501-1.459,5.075-3.906,6.735-5.859
		c1.697,1.387,4.454,4.089,5.951,5.859l1.607-1.387c-1.661-1.807-4.509-4.38-6.389-5.896c1.479-1.971,2.519-3.815,3.524-6.151
		c0.146-0.054,0.236-0.127,0.309-0.255l-1.459-0.803l-0.328,0.109h-9.583v1.734h8.579C31.882,16.972,28.03,21.736,23.266,24.328z"/>
</g>
</svg>
