<svg id="Livello_1" version="1.1" xmlns="http://www.w3.org/2000/svg" xmlns:xlink="http://www.w3.org/1999/xlink" x="0px" y="0px" viewBox="0 0 50 50" xml:space="preserve" style="enable-background:new 0 0 50 50;"><g><g><g id="_x5B_mob_x5D_-Company--Articles" transform="translate(-148.000000, -7.000000)"><g id="Header" transform="translate(7.000000, 6.000000)"><g id="Logo" transform="translate(141.000000, 0.000000)"><g id="Group-3" transform="translate(24.000000, 0.976500)"><g id="Clip-2"/><defs><filter id="Adobe_OpacityMaskFilter" filterUnits="userSpaceOnUse" x="-8.5" y="10.7" width="18.8" height="15.7"><feColorMatrix type="matrix" values="1 0 0 0 0  0 1 0 0 0  0 0 1 0 0  0 0 0 1 0"/></filter></defs><mask id="mask-2" maskUnits="userSpaceOnUse" x="-8.5" y="10.7" width="18.8" height="15.7"><g><polygon id="path-1" points="-8.5,10.7 10.4,10.7 10.4,26.4 -8.5,26.4" class="st1"/></g></mask><path id="Fill-1" d="M10.4,15.3C10.4,14,10,12.8,9.1,12c-0.8-0.8-2-1.3-3.1-1.3S3.6,11.1,2.8,12L1,13.8L-0.9,12c-0.8-0.8-2-1.3-3.1-1.3c-1.2,0-2.3,0.5-3.1,1.3C-8,12.8-8.5,14-8.5,15.3c0,1.1,0.5,2.2,1.3,3L1,26.4l8.1-8.1C9.9,17.5,10.3,16.4,10.4,15.3" class="st2"/></g><path id="Fill-4" d="M26.1,28.3l0.8,0.8c0.8,0.8,2,1.3,3.1,1.3c2.5,0,4.5-2,4.5-4.5v-6.1L26.1,28.3z" class="st3"/><path id="Fill-6" d="M15.6,19.8v6.1c0,2.5,2,4.5,4.5,4.5c1.2,0,2.3-0.5,3.1-1.3l0.8-0.8L15.6,19.8z" class="st3"/><path id="Fill-8" d="M7.8,35c-0.1-0.2-0.3-0.4-0.6-0.5c-0.2-0.1-0.5-0.2-0.9-0.2c-0.4,0-0.7,0.1-1,0.2c-0.3,0.2-0.5,0.4-0.7,0.8c-0.1-0.4-0.4-0.6-0.6-0.8c-0.3-0.2-0.6-0.3-1-0.3c-0.2,0-0.4,0-0.5,0.1c-0.2,0.1-0.3,0.1-0.4,0.2c-0.1,0.1-0.2,0.2-0.3,0.3c-0.1,0.1-0.2,0.2-0.2,0.3h0v-0.8H0v5.8h1.6v-2.9c0-0.2,0-0.4,0-0.6c0-0.2,0.1-0.3,0.1-0.5C1.8,36.2,1.9,36,2.1,36c0.1-0.1,0.3-0.1,0.5-0.1c0.2,0,0.3,0,0.4,0.1c0.1,0.1,0.2,0.2,0.2,0.3c0,0.1,0.1,0.3,0.1,0.4c0,0.2,0,0.3,0,0.4v3.1h1.6v-3.1c0-0.2,0-0.3,0-0.5c0-0.2,0.1-0.3,0.2-0.4c0.1-0.1,0.2-0.2,0.3-0.3c0.1-0.1,0.3-0.1,0.5-0.1c0.3,0,0.4,0.1,0.5,0.3c0.1,0.2,0.2,0.4,0.2,0.7v3.4h1.6v-3.4c0-0.4,0-0.7-0.1-1C8,35.5,7.9,35.2,7.8,35" class="st3"/><path id="Fill-10" d="M12.5,37.3c0,0.2,0,0.4,0,0.6c0,0.2-0.1,0.3-0.1,0.5c-0.1,0.1-0.2,0.3-0.3,0.3c-0.1,0.1-0.3,0.1-0.5,0.1c-0.2,0-0.4,0-0.5-0.1c-0.1-0.1-0.2-0.2-0.2-0.4c-0.1-0.2-0.1-0.3-0.1-0.5c0-0.2,0-0.4,0-0.5v-2.9H9.1v3.2c0,0.4,0,0.8,0.1,1.1c0,0.3,0.1,0.6,0.3,0.9c0.1,0.2,0.3,0.4,0.6,0.6c0.3,0.1,0.6,0.2,1,0.2c0.2,0,0.4,0,0.5-0.1c0.2-0.1,0.3-0.1,0.4-0.2c0.1-0.1,0.2-0.2,0.3-0.3c0.1-0.1,0.2-0.2,0.2-0.3h0v0.8h1.5v-5.8h-1.6V37.3z" class="st3"/><path id="Fill-12" d="M18.4,37c-0.2-0.1-0.4-0.2-0.7-0.3c-0.2-0.1-0.4-0.1-0.7-0.2c-0.2-0.1-0.4-0.1-0.5-0.2c-0.1-0.1-0.2-0.2-0.2-0.3c0-0.2,0.1-0.3,0.2-0.4c0.1-0.1,0.3-0.1,0.4-0.1c0.4,0,0.7,0.2,0.9,0.5l1-1.1c-0.2-0.3-0.5-0.5-0.9-0.6c-0.3-0.1-0.7-0.2-1-0.2c-0.3,0-0.5,0-0.8,0.1c-0.3,0.1-0.5,0.2-0.7,0.4c-0.2,0.2-0.4,0.4-0.5,0.6c-0.1,0.2-0.2,0.5-0.2,0.9c0,0.4,0.1,0.7,0.2,0.9c0.1,0.2,0.3,0.4,0.5,0.5c0.2,0.1,0.4,0.2,0.7,0.3c0.2,0.1,0.4,0.1,0.7,0.2c0.2,0.1,0.4,0.1,0.5,0.2c0.1,0.1,0.2,0.2,0.2,0.3c0,0.2-0.1,0.3-0.2,0.3C17.1,39,16.9,39,16.8,39c-0.2,0-0.5-0.1-0.6-0.2c-0.2-0.1-0.3-0.3-0.5-0.5l-1,1.2c0.3,0.3,0.6,0.5,0.9,0.6c0.4,0.1,0.7,0.2,1.1,0.2c0.3,0,0.6,0,0.8-0.1c0.3-0.1,0.5-0.2,0.8-0.3c0.2-0.1,0.4-0.3,0.6-0.6c0.1-0.2,0.2-0.6,0.2-0.9c0-0.4-0.1-0.7-0.2-0.9C18.8,37.3,18.6,37.2,18.4,37" class="st3"/><path id="Fill-14" d="M33.4,35c-0.1-0.2-0.3-0.4-0.6-0.5c-0.2-0.1-0.5-0.2-0.9-0.2c-0.4,0-0.7,0.1-1,0.2c-0.3,0.2-0.5,0.4-0.7,0.8c-0.1-0.4-0.4-0.6-0.6-0.8c-0.3-0.2-0.6-0.3-1-0.3c-0.2,0-0.4,0-0.5,0.1c-0.2,0.1-0.3,0.1-0.4,0.2c-0.1,0.1-0.2,0.2-0.3,0.3c-0.1,0.1-0.2,0.2-0.2,0.3h0v-0.8h-1.5v5.8h1.6v-2.9c0-0.2,0-0.4,0-0.6c0-0.2,0.1-0.3,0.1-0.5c0.1-0.1,0.2-0.3,0.3-0.3c0.1-0.1,0.3-0.1,0.5-0.1c0.2,0,0.3,0,0.4,0.1c0.1,0.1,0.2,0.2,0.2,0.3c0,0.1,0.1,0.3,0.1,0.4c0,0.2,0,0.3,0,0.4v3.1h1.6v-3.1c0-0.2,0-0.3,0-0.5c0-0.2,0.1-0.3,0.2-0.4c0.1-0.1,0.2-0.2,0.3-0.3c0.1-0.1,0.3-0.1,0.5-0.1c0.3,0,0.4,0.1,0.5,0.3c0.1,0.2,0.2,0.4,0.2,0.7v3.4h1.6v-3.4c0-0.4,0-0.7-0.1-1C33.6,35.5,33.5,35.2,33.4,35" class="st3"/><path id="Fill-16" d="M45.2,35c-0.1-0.2-0.3-0.4-0.6-0.6c-0.2-0.1-0.6-0.2-1-0.2c-0.2,0-0.4,0-0.5,0.1c-0.2,0.1-0.3,0.1-0.4,0.2c-0.1,0.1-0.2,0.2-0.3,0.3c-0.1,0.1-0.2,0.2-0.2,0.3h0v-0.8h-1.5v5.8h1.6v-2.9c0-0.2,0-0.4,0-0.6c0-0.2,0.1-0.3,0.1-0.5c0.1-0.1,0.2-0.3,0.3-0.3c0.1-0.1,0.3-0.1,0.5-0.1c0.2,0,0.4,0,0.5,0.1c0.1,0.1,0.2,0.2,0.2,0.4c0.1,0.2,0.1,0.3,0.1,0.5c0,0.2,0,0.4,0,0.5v2.9h1.6V37c0-0.4,0-0.8-0.1-1.1C45.4,35.6,45.3,35.3,45.2,35" class="st3"/><path id="Fill-18" d="M50,35.8v-1.4h-1.4v-1.7H47v1.7h-1v1.4h1v2.8c0,0.3,0,0.6,0.1,0.8c0.1,0.2,0.2,0.4,0.4,0.5c0.2,0.1,0.4,0.2,0.6,0.3c0.2,0.1,0.5,0.1,0.7,0.1c0.2,0,0.4,0,0.6,0c0.2,0,0.4-0.1,0.6-0.1v-1.5c-0.1,0.1-0.2,0.1-0.3,0.1c-0.1,0-0.3,0-0.3,0c-0.2,0-0.3,0-0.4-0.1s-0.2-0.1-0.2-0.2c-0.1-0.1-0.1-0.2-0.1-0.3c0-0.1,0-0.3,0-0.4v-1.9H50z" class="st3"/><path id="Fill-20" d="M21.1,36.6c0-0.1,0-0.3,0.1-0.4c0.1-0.1,0.1-0.2,0.2-0.3c0.1-0.1,0.2-0.2,0.3-0.2c0.1-0.1,0.3-0.1,0.5-0.1c0.3,0,0.5,0.1,0.7,0.3c0.2,0.2,0.3,0.5,0.3,0.8H21.1z M24.8,37.1c-0.1-1.6-1.2-2.8-2.6-2.8c-1.4,0-2.6,1.3-2.7,2.9c0,0,0,0,0,0.1v0v0c0,0.5,0.1,0.9,0.2,1.3c0.1,0.4,0.4,0.7,0.6,1c0.3,0.3,0.6,0.5,0.9,0.6c0.4,0.1,0.7,0.2,1.1,0.2c0.4,0,0.8-0.1,1.2-0.3c0.4-0.2,0.7-0.5,1-0.9L24.4,39l-0.9-0.7c-0.1,0.2-0.3,0.4-0.5,0.5c-0.2,0.1-0.4,0.2-0.7,0.2c-0.3,0-0.6-0.1-0.8-0.3c-0.2-0.2-0.4-0.5-0.4-0.8h3.7h0v-0.6v0v0C24.8,37.2,24.8,37.2,24.8,37.1L24.8,37.1z" class="st3"/><path id="Fill-22" d="M36.1,36.6c0-0.1,0-0.3,0.1-0.4c0.1-0.1,0.1-0.2,0.2-0.3c0.1-0.1,0.2-0.2,0.3-0.2c0.1-0.1,0.3-0.1,0.5-0.1c0.3,0,0.5,0.1,0.7,0.3c0.2,0.2,0.3,0.5,0.3,0.8H36.1z M39.8,37.1c-0.1-1.6-1.2-2.8-2.6-2.8c-1.4,0-2.6,1.3-2.7,2.9c0,0,0,0,0,0.1c0,0,0,0,0,0c0,0,0,0,0,0c0,0.5,0.1,0.9,0.2,1.3c0.1,0.4,0.4,0.7,0.6,1c0.3,0.3,0.6,0.5,0.9,0.6c0.4,0.1,0.7,0.2,1.1,0.2c0.4,0,0.8-0.1,1.2-0.3c0.4-0.2,0.7-0.5,1-0.9L39.3,39l-0.9-0.7c-0.1,0.2-0.3,0.4-0.5,0.5c-0.2,0.1-0.4,0.2-0.7,0.2c-0.3,0-0.6-0.1-0.8-0.3c-0.2-0.2-0.4-0.5-0.4-0.8h3.7h0v-0.6c0,0,0,0,0,0c0,0,0,0,0,0C39.8,37.2,39.8,37.2,39.8,37.1L39.8,37.1z" class="st3"/></g></g></g></g></g></svg>