<?xml version="1.0" standalone="no"?>
<!DOCTYPE svg PUBLIC "-//W3C//DTD SVG 20010904//EN"
 "http://www.w3.org/TR/2001/REC-SVG-20010904/DTD/svg10.dtd">
<svg version="1.0" xmlns="http://www.w3.org/2000/svg"
 width="1200.000000pt" height="1200.000000pt" viewBox="0 0 1200.000000 1200.000000"
 preserveAspectRatio="xMidYMid meet">

<g transform="translate(0.000000,1200.000000) scale(0.100000,-0.100000)"
fill="#fc6c4f" stroke="none">
<path d="M3400 11190 c-914 -50 -1771 -522 -2243 -1235 -414 -626 -535 -1431
-351 -2344 194 -958 752 -2085 1577 -3179 485 -645 1026 -1254 1887 -2127 195
-198 478 -487 628 -642 390 -402 637 -626 895 -811 126 -90 313 -206 324 -200
15 6 1883 1888 2083 2098 1062 1115 1776 2038 2267 2930 364 661 597 1210 722
1696 187 735 172 1454 -44 2040 -48 131 -167 376 -240 494 -144 232 -374 494
-575 654 -278 221 -640 406 -995 507 -277 80 -520 112 -835 112 -403 0 -728
-60 -1080 -200 -474 -188 -771 -437 -1274 -1071 -76 -95 -141 -170 -145 -167
-5 2 -71 85 -146 182 -188 242 -330 408 -454 532 -395 393 -870 626 -1449 711
-63 9 -398 32 -412 28 -3 0 -66 -4 -140 -8z m457 -625 c238 -32 466 -96 638
-181 169 -83 410 -286 598 -502 181 -209 328 -422 592 -857 250 -413 320 -525
327 -525 7 0 116 176 336 545 194 326 293 478 422 650 323 429 675 693 1053
789 274 70 456 90 762 83 250 -5 373 -21 581 -77 637 -169 1159 -644 1404
-1277 55 -142 114 -376 136 -538 84 -632 -109 -1419 -560 -2290 -354 -683
-789 -1339 -1347 -2035 -440 -549 -907 -1059 -1603 -1755 -392 -391 -1163
-1135 -1185 -1143 -12 -4 -1631 1615 -1852 1853 -776 835 -1216 1371 -1681
2050 -577 843 -928 1647 -1058 2420 -42 252 -53 417 -47 707 5 261 20 395 67
613 89 408 394 828 795 1093 115 77 322 184 445 231 178 68 424 129 610 150
130 15 439 12 567 -4z"/>
</g>
</svg>
