<svg viewBox="0 0 1376 198" version="1.1" xmlns="http://www.w3.org/2000/svg" xmlns:xlink="http://www.w3.org/1999/xlink"><g id="Page-1" stroke="none" stroke-width="1" fill="none" fill-rule="evenodd"><g id="Logo_Grey_Horizontal_72dpi" fill-rule="nonzero"><path id="Shape" d="M198.92,49 C199.740545,29.7090769 188.639656,11.8913274 170.961953,4.12525929 C153.28425,-3.6408088 132.652486,0.236332361 119,13.89 L99.7,33.2 L80.39,13.9 C62.0707148,-4.43309227 32.3580923,-4.44428515 14.025,13.875 C-4.30809227,32.1942852 -4.31928515,61.9069077 14,80.24 L100,166.16 L185.38,80.24 C193.659708,71.8988232 198.493942,60.7450953 198.92,49" fill="#FC6C4F"/><path id="Shape" d="M442.31,55.28 C439.142355,50.7153774 434.836759,47.0578617 429.82,44.67 C424.56,42.0833333 418.083333,40.7866667 410.39,40.78 C401.896667,40.78 394.753333,42.35 388.96,45.49 C383.166667,48.63 378.213333,53.89 374.1,61.27 C371.356702,54.6332623 366.413316,49.1425728 360.1,45.72 C353.512296,42.3326028 346.186166,40.6350848 338.78,40.78 C334.79343,40.7457556 330.823746,41.3017809 327,42.43 C323.612177,43.4250949 320.365763,44.8500221 317.34,46.67 C314.647066,48.2921233 312.187769,50.273691 310.03,52.56 C308.1668,54.5315793 306.582105,56.7488064 305.32,59.15 L304.86,59.15 L304.86,43.62 L270.95,43.62 L270.95,158.09 L306.28,158.09 L306.28,101.09 C306.276954,97.4652762 306.510786,93.8442273 306.98,90.25 C307.407994,86.9937781 308.424529,83.8425199 309.98,80.95 C311.483372,78.1895847 313.727632,75.9037648 316.46,74.35 C319.28,72.7 322.98,71.88 327.52,71.88 C331.606667,71.88 334.713333,72.8233333 336.84,74.71 C338.926046,76.5611961 340.502872,78.9161068 341.42,81.55 C342.359105,84.2737044 342.891496,87.1209879 343,90 C343.15,93 343.25,95.49 343.25,97.53 L343.25,158.06 L378.6,158.06 L378.6,97.55 C378.583469,94.2241223 378.939013,90.9068312 379.66,87.66 C380.277265,84.7029107 381.477271,81.8983633 383.19,79.41 C384.877051,77.0251556 387.154797,75.1195672 389.8,73.88 C393.018583,72.4488511 396.519452,71.7650876 400.04,71.88 C405.853333,71.88 409.896667,73.8033333 412.17,77.65 C414.542657,81.8465618 415.725133,86.6110403 415.59,91.43 L415.59,158.09 L450.901214,158.09 L450.9,90.49 C450.933766,83.9602676 450.263222,77.4459355 448.9,71.06 C447.732433,65.425383 445.49171,60.0680172 442.3,55.28" fill="#ABB2B1"/><path id="Shape" d="M546.07,100.61 C546.08102,104.235303 545.843798,107.857107 545.36,111.45 C544.931881,114.709363 543.915387,117.863881 542.36,120.76 C540.860769,123.520905 538.61528,125.804511 535.88,127.35 C533.06,129 529.36,129.83 524.82,129.83 C520.28,129.83 516.82,128.89 514.34,127 C511.900386,125.105193 510.023155,122.581475 508.91,119.7 C507.706239,116.568404 506.994479,113.269345 506.8,109.92 C506.57,106.39 506.44,102.97 506.44,99.67 L506.44,43.62 L471.16,43.62 L471.16,106.74 C471.125555,113.915126 471.637031,121.082474 472.69,128.18 C473.53023,134.271888 475.620632,140.124331 478.83,145.37 C481.98105,150.322417 486.466471,154.284423 491.77,156.8 C497.356667,159.54 504.62,160.913333 513.56,160.92 C517.549602,160.950415 521.522025,160.394478 525.35,159.27 C528.733392,158.258028 531.975643,156.823374 535,155 C537.673629,153.401432 540.096447,151.416675 542.19,149.11 C544.0216,147.081071 545.640083,144.869479 547.02,142.51 L547.5,142.51 L547.5,158.06 L581.41,158.06 L581.41,43.62 L546.07,43.62 L546.07,100.62 L546.07,100.61 Z" fill="#ABB2B1"/><path id="Shape" d="M677.14,95.67 C672.63503,93.1500853 667.792605,91.2878732 662.76,90.14 C657.66,88.96 652.866667,87.86 648.38,86.84 C644.582592,86.0389958 640.876759,84.8528611 637.32,83.3 C634.4,81.97 632.97,79.89 632.97,77.06 C632.97,73.61 634.37,71.17 637.2,69.76 C639.896838,68.379879 642.880564,67.6536448 645.91,67.64 C654.403333,67.64 661.233333,70.86 666.4,77.3 L688.09,55.87 C682.768563,50.2302023 676.003711,46.1560733 668.53,44.09 C661.10426,41.9308826 653.413208,40.8201399 645.68,40.79 C639.716965,40.7767425 633.776294,41.5193264 628,43 C622.472271,44.3712526 617.242583,46.7437613 612.57,50 C608.097835,53.1341853 604.389333,57.2357541 601.72,62 C598.856503,67.3573009 597.43663,73.3676366 597.6,79.44 C597.6,86.6533333 599.056667,92.4233333 601.97,96.75 C604.753709,100.96326 608.55852,104.403415 613.03,106.75 C617.57252,109.13435 622.406626,110.916044 627.41,112.05 C632.51,113.23 637.296667,114.33 641.77,115.35 C645.60526,116.147608 649.326936,117.417277 652.85,119.13 C655.75,120.62 657.2,122.86 657.2,125.83 C657.2,128.976667 655.55,131.136667 652.25,132.31 C648.693047,133.53262 644.950763,134.128137 641.19,134.07 C636.333137,134.185884 631.52321,133.096779 627.19,130.9 C622.926965,128.583346 619.18342,125.418349 616.19,121.6 L594.75,145.38 C600.441819,151.213081 607.598877,155.406454 615.47,157.52 C623.3679,159.752149 631.532785,160.899337 639.74,160.93 C645.98464,160.915097 652.214515,160.322573 658.35,159.16 C664.327063,158.093288 670.077012,156.009776 675.35,153 C680.311971,150.155983 684.549024,146.202997 687.73,141.45 C690.936667,136.67 692.54,130.586667 692.54,123.2 C692.54,115.98 691.11,110.2 688.19,105.88 C685.361888,101.642711 681.572176,98.1339726 677.13,95.64" fill="#ABB2B1"/><path id="Shape" d="M1007.83,55.28 C1004.66098,50.7204634 1000.36007,47.0639989 995.35,44.67 C990.083333,42.0833333 983.606667,40.7866667 975.92,40.78 C967.426667,40.78 960.283333,42.35 954.49,45.49 C948.696667,48.63 943.743333,53.89 939.63,61.27 C936.483333,54.2033333 931.816667,49.02 925.63,45.72 C919.042587,42.331811 911.716254,40.6342461 904.31,40.78 C900.330154,40.7481683 896.367418,41.3041644 892.55,42.43 C889.16195,43.4244737 885.915459,44.8494348 882.89,46.67 C880.197209,48.2923275 877.737938,50.273874 875.58,52.56 C873.716606,54.5314194 872.131891,56.7486745 870.87,59.15 L870.41,59.15 L870.41,43.62 L836.47,43.62 L836.47,158.09 L871.8,158.09 L871.8,101.09 C871.796954,97.4652762 872.030786,93.8442273 872.5,90.25 C872.926028,86.9933358 873.942675,83.8417296 875.5,80.95 C876.999793,78.1902858 879.240664,75.9043894 881.97,74.35 C884.79,72.7 888.49,71.88 893.03,71.88 C897.116667,71.88 900.223333,72.8233333 902.35,74.71 C904.437743,76.5597148 906.014888,78.9151021 906.93,81.55 C907.893296,84.2803431 908.44926,87.137662 908.58,90.03 C908.73,93.03 908.83,95.52 908.83,97.56 L908.83,158.09 L944.16,158.09 L944.16,97.55 C944.144803,94.2241904 944.500331,90.9070474 945.22,87.66 C945.840826,84.7040333 947.040542,81.9001643 948.75,79.41 C950.43908,77.0270277 952.716282,75.1218951 955.36,73.88 C958.575418,72.4500029 962.072776,71.7662574 965.59,71.88 C971.41,71.88 975.456667,73.8033333 977.73,77.65 C980.097751,81.8481214 981.276655,86.6121382 981.14,91.43 L981.14,158.09 L1016.4712,158.09 L1016.47,90.49 C1016.50353,83.960279 1015.83299,77.4459718 1014.47,71.06 C1013.30861,65.4251365 1011.07106,60.0672382 1007.88,55.28" fill="#ABB2B1"/><path id="Shape" d="M1269.5,56.33 C1266.36642,51.4036092 1261.92415,47.4460748 1256.67,44.9 C1251.16333,42.16 1243.93667,40.7866667 1234.99,40.78 C1231.00686,40.7480603 1227.04081,41.3040485 1223.22,42.43 C1219.83085,43.4259634 1216.58413,44.8543859 1213.56,46.68 C1210.8656,48.2960543 1208.40595,50.2745447 1206.25,52.56 C1204.38259,54.5303901 1202.79444,56.7477452 1201.53,59.15 L1201.07,59.15 L1201.07,43.61 L1167.14,43.61 L1167.14,158.08 L1202.47,158.08 L1202.47,101.08 C1202.46653,97.4552626 1202.70036,93.8341858 1203.17,90.24 C1203.59594,86.9801467 1204.61256,83.8252437 1206.17,80.93 C1207.66999,78.1730119 1209.91104,75.8903989 1212.64,74.34 C1215.46,72.69 1219.16,71.86 1223.7,71.86 C1228.24,71.86 1231.7,72.8 1234.19,74.69 C1236.63107,76.587544 1238.50842,79.1148852 1239.62,82 C1240.82695,85.1271755 1241.53884,88.4234468 1241.73,91.77 C1241.97,95.3 1242.09,98.77 1242.09,102.02 L1242.09,158.07 L1277.42,158.07 L1277.42,95 C1277.45699,87.8202455 1276.90514,80.6495485 1275.77,73.56 C1274.86144,67.4701242 1272.73951,61.6246276 1269.53,56.37" fill="#ABB2B1"/><path id="Shape" d="M1375.63,71.88 L1375.63,43.62 L1344.54,43.62 L1344.54,9.7 L1309.19,9.7 L1309.19,43.62 L1286.6,43.62 L1286.6,71.88 L1309.19,71.88 L1309.19,126.29 C1309.03625,131.794362 1310.12309,137.262769 1312.37,142.29 C1314.37354,146.546544 1317.41299,150.232396 1321.21,153.01 C1325.17521,155.84139 1329.65079,157.878832 1334.39,159.01 C1339.78838,160.313773 1345.32663,160.948539 1350.88,160.9 C1355.05321,160.892829 1359.22286,160.655803 1363.37,160.19 C1367.5509,159.734554 1371.66299,158.784578 1375.62,157.36 L1375.62,127.94 C1373.61554,129.53241 1371.17419,130.477561 1368.62,130.65 C1366.16055,130.992106 1363.68273,131.185789 1361.2,131.23 C1358.10358,131.349725 1355.0158,130.828852 1352.13,129.7 C1350.01831,128.828699 1348.24385,127.299717 1347.07,125.34 C1345.89767,123.277292 1345.17199,120.991207 1344.94,118.63 C1344.61939,115.774732 1344.46579,112.903177 1344.48,110.03 L1344.48,71.88 L1375.57,71.88 L1375.63,71.88 Z" fill="#ABB2B1"/><path id="Shape" d="M819.6,96.87 C817.538083,65.5498859 791.175589,41.4093068 759.795408,42.1059297 C728.415227,42.8025526 703.149991,68.089239 702.48,99.47 C702.48,99.89 702.48,100.3 702.48,100.72 L702.48,100.85 C702.37363,109.357905 704.078003,117.791142 707.48,125.59 C710.625894,132.794336 715.237038,139.264922 721.02,144.59 C726.891414,149.943455 733.772572,154.07079 741.26,156.73 C749.235995,159.581193 757.649875,161.012839 766.12,160.96 C775.377988,160.923714 784.519213,158.890814 792.92,155 C801.313892,151.247595 808.666235,145.505079 814.34,138.27 L809.07,134.41 L789.62,120.14 C786.768784,124.090707 783.212481,127.48089 779.13,130.14 C775.13,132.733333 770.226667,134.026667 764.42,134.02 C757.5,134.02 751.686667,132.02 746.98,128.02 C742.173289,123.840747 738.935145,118.147541 737.8,111.88 L819.8,111.88 L819.8,100.68 C819.8,99.39 819.74,98.1 819.65,96.83 L819.6,96.87 Z M737.84,87.83 C737.983534,85.0174645 738.662335,82.2581366 739.84,79.7 C741.006677,77.1120157 742.687391,74.7882764 744.78,72.87 C747.026805,70.8186219 749.62052,69.1831594 752.44,68.04 C755.735908,66.7243004 759.261844,66.0816757 762.81,66.15 C769.24,66.15 774.51,68.28 778.58,72.51 C782.589617,76.5704829 784.724271,82.1191316 784.47,87.82 L737.79,87.82 L737.84,87.83 Z" fill="#ABB2B1"/><path id="Shape" d="M1150.29,96.87 C1148.22808,65.5498859 1121.86559,41.4093068 1090.48541,42.1059297 C1059.10523,42.8025526 1033.83999,68.089239 1033.17,99.47 C1033.17,99.89 1033.17,100.3 1033.17,100.72 C1033.17,100.72 1033.17,100.72 1033.17,100.78 C1033.17,100.84 1033.17,100.78 1033.17,100.85 C1033.06363,109.357905 1034.768,117.791142 1038.17,125.59 C1041.3141,132.795351 1045.92549,139.266284 1051.71,144.59 C1057.58238,149.942158 1064.46326,154.069327 1071.95,156.73 C1079.926,159.581193 1088.33988,161.012839 1096.81,160.96 C1106.08233,160.957433 1115.24467,158.95168 1123.67,155.08 C1132.03666,151.30098 1139.35747,145.541805 1145,138.3 L1139.73,134.44 L1120.28,120.17 C1117.42896,124.120858 1113.87262,127.511071 1109.79,130.17 C1105.79,132.763333 1100.88667,134.056667 1095.08,134.05 C1088.15333,134.05 1082.34,132.05 1077.64,128.05 C1072.82958,123.872268 1069.58781,118.178885 1068.45,111.91 L1150.45,111.91 L1150.45,100.85 C1150.45,100.85 1150.45,100.85 1150.45,100.8 C1150.45,100.75 1150.45,100.75 1150.45,100.72 C1150.45,99.43 1150.39,98.14 1150.3,96.87 L1150.29,96.87 Z M1068.48,87.87 C1068.62329,85.0574287 1069.3021,82.2980554 1070.48,79.74 C1071.64816,77.1502864 1073.33253,74.8262031 1075.43,72.91 C1077.67277,70.8582621 1080.26328,69.2226861 1083.08,68.08 C1086.37272,66.7653537 1089.89518,66.1227433 1093.44,66.19 C1099.87333,66.19 1105.13667,68.31 1109.23,72.55 C1113.23805,76.6108294 1115.36936,82.1602153 1115.11,87.86 L1068.47,87.86 L1068.48,87.87 Z" fill="#ABB2B1"/><path id="Shape" d="M111.24,175.71 L119.83,184.29 C133.315859,197.587941 153.465727,201.492158 170.942365,194.193477 C188.419003,186.894796 199.807286,169.819459 199.83,150.88 L199.83,86.55 L111.24,175.71 Z" fill="#ABB2B1"/><path id="Shape" d="M1.24,86.55 L1.24,150.89 C1.2667363,169.827641 12.6564965,186.899296 30.1322381,194.195418 C47.6079797,201.49154 67.7554377,197.586673 81.24,184.29 L89.82,175.72 L1.24,86.55 Z" fill="#ABB2B1"/></g></g></svg>