<svg version="1.1" xmlns="http://www.w3.org/2000/svg" xmlns:xlink="http://www.w3.org/1999/xlink" x="0px" y="0px" viewBox="-1205 563 37 37" enable-background="new -1205 563 37 37" xml:space="preserve" class="def_3GshQ"><g><path stroke-linecap="round" stroke-linejoin="round" stroke-miterlimit="10" d="M-1179.204,595.312v-2.886h6.402c0.727-0.916,1.371-1.917,1.918-2.999c4.383-8.666,0.856-19.216-7.877-23.564c-2.488-1.239-5.131-1.835-7.739-1.862c-2.608,0.027-5.251,0.623-7.739,1.862c-8.733,4.349-12.26,14.899-7.877,23.564c0.547,1.082,1.191,2.083,1.918,2.999h6.45v2.886l-3.971,0.001c1.387,1.053,1.688,1.234,3.087,1.93c2.572,1.281,5.368,1.822,8.132,1.751c2.763,0.071,5.56-0.47,8.132-1.751c1.398-0.696,1.7-0.877,3.087-1.93L-1179.204,595.312z" class="cls_01_3wVN2"/><g><g><polygon stroke-linecap="round" stroke-linejoin="round" stroke-miterlimit="10" points="-1172.926,575.617 -1186.5,568.817 -1200.074,575.617 -1200.074,578.438 -1172.926,578.438" class="cls_01_3wVN2"/><line stroke-linecap="round" stroke-linejoin="round" stroke-miterlimit="10" x1="-1200.074" y1="575.672" x2="-1172.926" y2="575.672" class="cls_01_3wVN2"/></g><g><g><rect x="-1187.681" y="581.324" stroke-linecap="round" stroke-linejoin="round" stroke-miterlimit="10" width="2.407" height="11.1" class="cls_01_3wVN2"/><rect x="-1188.95" y="578.438" stroke-linecap="round" stroke-linejoin="round" stroke-miterlimit="10" width="4.849" height="2.886" class="cls_01_3wVN2"/><rect x="-1188.901" y="592.424" stroke-linecap="round" stroke-linejoin="round" stroke-miterlimit="10" width="4.849" height="2.886" class="cls_01_3wVN2"/></g><g><rect x="-1177.983" y="581.324" stroke-linecap="round" stroke-linejoin="round" stroke-miterlimit="10" width="2.407" height="11.1" class="cls_01_3wVN2"/><rect x="-1179.252" y="578.438" stroke-linecap="round" stroke-linejoin="round" stroke-miterlimit="10" width="4.848" height="2.886" class="cls_01_3wVN2"/><polyline stroke-linecap="round" stroke-linejoin="round" stroke-miterlimit="10" points="-1175.281,595.311 -1179.204,595.311 -1179.204,592.424 -1174.355,592.424" class="cls_01_3wVN2"/></g><g><rect x="-1197.376" y="581.324" stroke-linecap="round" stroke-linejoin="round" stroke-miterlimit="10" width="2.408" height="11.1" class="cls_01_3wVN2"/><rect x="-1198.645" y="578.438" stroke-linecap="round" stroke-linejoin="round" stroke-miterlimit="10" width="4.849" height="2.886" class="cls_01_3wVN2"/><polyline stroke-linecap="round" stroke-linejoin="round" stroke-miterlimit="10" points="-1198.596,592.424 -1193.748,592.424 -1193.748,595.311 -1197.719,595.311" class="cls_01_3wVN2"/></g></g></g><line stroke-linecap="round" stroke-linejoin="round" stroke-miterlimit="10" x1="-1194.424" y1="595.311" x2="-1178.576" y2="595.311" class="cls_01_3wVN2"/></g></svg>