<svg version="1.1" xmlns="http://www.w3.org/2000/svg" xmlns:xlink="http://www.w3.org/1999/xlink" x="0px" y="0px" viewBox="-1118.5 563 37 37" enable-background="new -1118.5 563 37 37" xml:space="preserve" class="def_3SjLJ"><g><path stroke-miterlimit="10" d="M-1090.629,566.717c4.887,3.104,8.129,8.565,8.129,14.783c0,9.665-7.835,17.5-17.5,17.5l-0.651-0.011c0.622-0.507,1.047-1.22,1.609-2.054c0,0,1.325-1.747,1.031-4.005c-0.293-2.258-0.868-2.657,1.113-5.343c1.98-2.686,0.784-6.404-2.604-8.163c-3.233-1.678-7.117-0.598-8.174,2.567c-1.057,3.165-1.714,2.925-3.73,3.983c-2.016,1.059-2.682,3.148-2.682,3.148c-0.263,0.688-0.375,1.456-0.47,2.069l-0.084-0.105c-1.807-2.754-2.857-6.048-2.857-9.587c0-9.665,7.835-17.5,17.5-17.5c2.013,0,3.946,0.34,5.746,0.965" class="cls_01_3fAhl"/><circle stroke-miterlimit="10" cx="-1103.607" cy="587.333" r="2.776" class="cls_01_3fAhl"/><polyline stroke-miterlimit="10" points="-1094.141,571.856 -1101.215,585.482 -1102.354,584.743-1103.371,584.363 -1096.296,570.737" class="cls_01_3fAhl"/><line stroke-linecap="round" stroke-linejoin="round" stroke-miterlimit="10" x1="-1109.723" y1="590.452" x2="-1102.871" y2="594.009" class="cls_01_3fAhl"/><path stroke-linecap="round" stroke-linejoin="round" stroke-miterlimit="10" d="M-1090.645,566.727l-1.99,3.879c-0.519,1-1.75,1.389-2.749,0.87l0,0c-0.999-0.519-1.389-1.75-0.87-2.749l1.936-3.775" class="cls_01_3fAhl"/></g></svg>