<svg xmlns="http://www.w3.org/2000/svg" width="44" height="45" viewBox="0 0 44 45">
    <defs>
        <linearGradient id="ywhv1qgy3a" x1="48.815%" x2="50.727%" y1="4.997%" y2="87.612%">
            <stop offset="0%" stop-color="#FFF"/>
            <stop offset="100%" stop-color="#A4CEDD"/>
        </linearGradient>
        <linearGradient id="3uwoo1dr3b" x1="50%" x2="50%" y1="8.92%" y2="94.783%">
            <stop offset="0%" stop-color="#72A2BE"/>
            <stop offset="35.936%" stop-color="#6093AF"/>
            <stop offset="100%" stop-color="#38718E"/>
        </linearGradient>
        <linearGradient id="eohb055ghc" x1="52.819%" x2="42.725%" y1="39.109%" y2="72.145%">
            <stop offset="1.484%" stop-color="#FEC756"/>
            <stop offset="21.32%" stop-color="#FEC251"/>
            <stop offset="44.512%" stop-color="#FCB443"/>
            <stop offset="51.702%" stop-color="#FCAE3D"/>
        </linearGradient>
        <linearGradient id="tmdw3cb7ld" x1="50%" x2="50%" y1="-23.935%" y2="36.472%">
            <stop offset="0%" stop-color="#72A2BE"/>
            <stop offset="35.936%" stop-color="#6093AF"/>
            <stop offset="100%" stop-color="#38718E"/>
        </linearGradient>
        <linearGradient id="3dtx7lu6ye" x1="47.668%" x2="92.891%" y1="43.362%" y2="81.839%">
            <stop offset="23.582%" stop-color="#FEC756"/>
            <stop offset="38.95%" stop-color="#FEC251"/>
            <stop offset="56.918%" stop-color="#FCB443"/>
            <stop offset="62.488%" stop-color="#FCAE3D"/>
        </linearGradient>
    </defs>
    <g fill="none" fill-rule="evenodd">
        <g fill-rule="nonzero">
            <g transform="translate(-1028 -438) translate(1028 438)">
                <g fill="#F2F5F6">
                    <path d="M14.904 31.39v9.578c.095.001.188.007.282.007 5.202 0 9.944-1.963 13.53-5.185l-3.907-4.505c-2.743.58-6.086.58-9.905.106zM14.904 16.052v7.079c2.294-.1 4.532-.392 5.762-.81 2.615-.889 2.344-1.271 2.344-1.271l4.598-2.275s4.344 3.806 7.168 7.105c.433-1.648.665-3.377.665-5.16C35.441 9.534 26.373.465 15.186.465 9.226.465 3.868 3.04.162 7.137c1.394-.728 2.977-1.146 4.659-1.146 5.562 0 10.07 4.503 10.083 10.061z" transform="translate(7.84 1.68)"/>
                </g>
                <path fill="url(#ywhv1qgy3a)" d="M12.66 7.671c-1.681 0-3.264.418-4.658 1.146-3.216 1.68-5.416 5.038-5.425 8.915v4.45c0 2.566.522 5.106 1.535 7.465l.009-11.915c.01-1.108.239-2.16.631-3.13.737-.336 1.694-.587 2.923-.587 4.948 0 4.272 1.835 8.747 1.835 2.356 0 3.56-.648 4.177-1.262.396.973.627 2.031.637 3.144v7.117c.5-.003 1.004-.016 1.508-.038v-7.079c-.012-5.558-4.521-10.06-10.083-10.06z"/>
                <path fill="#A4CEDD" d="M21.236 32.867v9.705c.497.043 1 .069 1.508.076V33.07c-.496-.062-.996-.126-1.508-.204z"/>
                <path fill="#38718E" d="M20.599 14.588s-1.324-1.382-5.29-.314c-3.967 1.068-8.544 1.225-9.205 1.225-.661 0 13.934 3.25 13.934 3.25l.56-4.161z"/>
                <path fill="url(#3uwoo1dr3b)" d="M9.493 23.729c.271-1.315 3.823-.4 6.655.588 1.099.383 3.031.542 5.088.532v-7.117c-.01-1.113-.241-2.171-.637-3.144-.617.614-1.82 1.262-4.177 1.262-4.475 0-3.799-1.835-8.747-1.835-1.229 0-2.186.25-2.923.587-.392.97-.622 2.022-.631 3.13l-.01 11.915c2.713 7.074 9.275 12.236 17.125 12.925v-9.705c-.62-.094-1.25-.199-1.893-.316-5.173-.94-10.122-7.507-9.85-8.822z"/>
                <path fill="#F2F5F6" d="M42.616 27.56c-2.824-3.299-7.168-7.105-7.168-7.105L30.85 22.73s.271.382-2.344 1.27c-1.23.419-3.468.71-5.762.81v8.26c3.819.475 7.162.475 9.905-.105l3.908 4.505c2.897-2.603 5.04-6.029 6.059-9.91z"/>
                <path fill="#A4CEDD" d="M21.236 24.849v8.018c.512.078 1.012.142 1.508.204v-8.26c-.504.022-1.009.035-1.508.038z"/>
                <path fill="#38718E" d="M16.148 24.317c-2.832-.988-6.384-1.903-6.655-.588-.272 1.315 4.677 7.882 9.85 8.822.642.117 1.273.222 1.893.316v-8.018c-2.057.01-3.99-.149-5.088-.532z"/>
                <path fill="url(#eohb055ghc)" d="M35.448 20.455s-2.09-1.677-3.45-1.752c-1.36-.074-6.34-.416-7.035-.147-.694.27-.514 2.784 1.688 3.652 2.202.867 3.08.612 4.199.522 1.119-.09 1.66.322 2.59 1.406 3.268 3.812 2.008-3.68 2.008-3.68z"/>
                <path fill="#FEC756" d="M15.353 8.265H9.899c-.308 0-.56-.252-.56-.56V4.557c0-.308.252-.56.56-.56h5.454c.308 0 .56.252.56.56v3.148c0 .308-.252.56-.56.56z"/>
                <path fill="#38718E" d="M16.126 7.464H9.162c-1.617 0-1.617 1.587-1.617 1.587h10.208s0-1.587-1.627-1.587zM13.067 22.488L12.252 22.488 12.252 14.935 13.067 15.253z"/>
                <path fill="#A4CEDD" d="M13.067 15.253L13.067 9.051 12.252 9.051 12.252 14.935z"/>
                <path fill="#FCAE3D" d="M10.491 3.996H11.491V7.464H10.491zM12.245 3.996H13.245V7.464H12.245zM13.997 3.996H14.997V7.464H13.997z"/>
                <path fill="#FEC756" d="M20.262 2.454C19.14.61 17.323.244 16.434.18c-.02-.004-.038-.012-.06-.012H7.546c-.155 0-.28.125-.28.28v.904c0 .155.125.28.28.28h8.79c.593.041 1.874.283 2.672 1.563.114.184.358.241.552.146l.524-.257c.234-.115.314-.407.178-.63z"/>
                <path fill="#FCAE3D" d="M11.677 1.632H13.475V3.997H11.677z"/>
                <path fill="#DD8300" d="M11.677 1.632H13.475V2.6319999999999997H11.677z"/>
                <path fill="url(#tmdw3cb7ld)" d="M6.912 34.533L7.589 35.505 7.589 17.819 6.912 17.819z"/>
                <path fill="#FFF" d="M7.589 17.819H21.286V37.519H7.589z"/>
                <path fill="#FC6C4F" d="M9.863 27.906v-.532c0-.317.257-.574.574-.574h10.612c.317 0 .574.257.574.574v.532c0 .317-.257.574-.574.574H10.437c-.317 0-.574-.257-.574-.574z"/>
                <path fill="#FC6C4F" d="M15.476 21.481h.532c.317 0 .574.257.574.574v11.172c0 .317-.257.574-.574.574h-.532c-.317 0-.574-.257-.574-.574V22.055c0-.317.257-.574.574-.574z"/>
                <path fill="url(#3dtx7lu6ye)" d="M35.448 20.455L30.85 22.73s.271.382-2.344 1.27c-1.23.419-3.468.71-5.762.81-.504.023-1.009.036-1.508.039-2.057.01-3.99-.149-5.088-.532-2.832-.988-6.384-1.903-6.655-.588-.272 1.315 4.677 7.882 9.85 8.822.642.117 1.273.222 1.893.316.512.078 1.012.142 1.508.204 3.819.474 7.162.474 9.905-.106l3.908 4.505c2.897-2.603 5.04-6.029 6.059-9.91-2.824-3.299-7.168-7.105-7.168-7.105z"/>
                <path fill="#DD8300" d="M32.649 32.965s1.525-.638 2.44-1.248c-.61 1.424-1.22 2.655-1.22 2.655l-1.22-1.407"/>
                <path fill="#38718E" d="M18.66 15.602c.456.637 1.203 1.051 2.047 1.051.154 0 .296-.017.443-.044 0 0-.036-.3-.083-.476-.68-.012-1.293-.296-1.736-.747 0 0-.303.107-.672.216z"/>
                <path fill="#1D5A70" d="M19.331 15.386c-.386-.393-.644-.914-.708-1.492-.055-.016-.42-.023-.42-.023-.009.083-.015.178-.015.264 0 .501.147.968.4 1.36 0 .003.036.062.071.107.173-.03.672-.216.672-.216z"/>
                <path fill="#A4CEDD" d="M23.592 13.164c-.224-1.724-1.762-5.225-2.493-5.925-.114.11-.249.298-.394.534-.744 1.21-1.782 3.819-2.03 5.213-.052.201-.08.412-.08.63 0 1.39 1.128 2.518 2.519 2.518.678 0 1.292-.272 1.745-.708.475-.458.773-1.098.773-1.81 0-.155-.014-.306-.04-.452z"/>
                <g fill="#FBA900" opacity=".1" transform="translate(36.4 1.68)">
                    <circle cx="2.458" cy="2.789" r="2.071" transform="rotate(-10.264 2.458 2.789)"/>
                </g>
                <path fill="#FBA900" d="M40.103 2.26c-1.512 1.902-3.338.967-3.338.967s1.696 1.154.752 3.394c1.512-1.903 3.435-.91 3.435-.91s-1.793-1.212-.849-3.452z"/>
                <g fill="#FBA900" opacity=".1" transform="translate(30.24 8.4)">
                    <circle cx="2.101" cy="2.069" r="1.525" transform="rotate(-10.264 2.1 2.07)"/>
                </g>
                <path fill="#FBA900" d="M34.14 9.967c-1.779.203-2.243-1.235-2.243-1.235s.282 1.485-1.375 2.16c1.778-.204 2.262 1.314 2.262 1.314s-.302-1.564 1.355-2.239z"/>
                <circle cx="36.075" cy="16.555" r="1" fill="#FBA900" transform="rotate(-10.264 36.075 16.555)"/>
                <path fill="#FFF" d="M21.36 15.253c-.123 0-.236-.082-.27-.207-.04-.149.047-.302.195-.343.054-.016 1.148-.366.755-2.267-.032-.151.065-.3.217-.33.147-.033.3.065.33.217.506 2.442-1.137 2.916-1.153 2.92-.025.006-.05.01-.074.01z"/>
                <g fill="#FBA900" opacity=".1" transform="translate(0 35.28)">
                    <circle cx="3.46" cy="3.07" r="2.07" transform="rotate(-37.906 3.46 3.07)"/>
                </g>
                <path fill="#FBA900" d="M3.632 35.82c.22 2.42 2.259 2.64 2.259 2.64s-2.05.034-2.491 2.423c-.22-2.419-2.37-2.645-2.37-2.645s2.162-.029 2.602-2.418z"/>
                <circle cx="9.206" cy="43.796" r="1" fill="#FBA900" transform="rotate(-37.906 9.206 43.796)"/>
            </g>
        </g>
    </g>
</svg>
