<svg xmlns="http://www.w3.org/2000/svg" viewBox="0 0 21 21" class="tc-svg-icon src-shared_component-sections-ActivityInfo-safetyMeasures-3hH3"><path d="M18.744 17.79l-3.15-2.08a.328.328 0 00-.28-.037c-2.122.701-4.148.555-6.534.121-1.7-.309-3.677-2.062-4.02-2.999-.054-.148-.053-.246-.03-.275.162-.192 1.043-.213 2.5.348 1.783.686 4.098.358 5.54-.131.911-.31 1.144-.512 1.211-.72a.395.395 0 00-.044-.32.334.334 0 00-.289-.134l-.192.018c-.387.04-.72.074-1.47-.222-.4-.156-.56-.454-.621-.617a.764.764 0 01-.052-.362c.415-.051 2.002.045 2.544.076l.294.018c.35.019.982.43 1.3.683.006.006.014.011.02.015l3.273 2.232v4.386zM8.3 16.97H3.463V9.304h3.969c.185.325.47.59.831.744.013.004.026.006.038.011v2.436a5.057 5.057 0 01-.839-.227c-.765-.295-2.611-.9-3.228-.158-.13.157-.25.442-.08.907.418 1.145 2.38 2.84 4.147 3.329v.626zm0 2.82H.61V8.908a3.85 3.85 0 013.846-3.845 3.82 3.82 0 013.216 1.744c-.202.483-.37.933-.417 1.201a1.752 1.752 0 00-.036.686h-4.06a.305.305 0 00-.305.305v8.278c0 .168.137.304.305.304H8.3v2.21zM5.037 2.377V4.49a4.38 4.38 0 00-1.329.03V2.376h1.33zm-3.768-.61V.617C3.057.614 6.3.606 6.419.61c.673 0 1.938.224 2.851 1.722.02.033.03.061.038.082-.008.005-.017.013-.025.02l-.717.619c-.72-1.154-1.61-1.288-2.218-1.288h-5.08zM7.85 8.136c.088-.492.683-1.8 1.092-2.655.422.836 1.031 2.14 1.112 2.757a1.138 1.138 0 01-.329 1.017 1.146 1.146 0 01-1.225.229 1.13 1.13 0 01-.65-1.348zm11.398 4.83l-3.403-2.321c-.14-.112-1.008-.78-1.659-.817l-.29-.016c-1.904-.114-2.628-.121-2.872-.026-.225.088-.36.336-.361.664-.001.538.335 1.213 1.086 1.509.256.1.475.169.666.215-.956.303-2.265.52-3.504.406v-2.4l.03.002c.451 0 .879-.174 1.207-.489a1.723 1.723 0 00.508-1.548c-.133-1.027-1.4-3.385-1.455-3.485a.305.305 0 00-.268-.16h-.004a.306.306 0 00-.268.168 45.96 45.96 0 00-.706 1.488 4.427 4.427 0 00-2.308-1.542v-2.24h.701c.533 0 1.152.12 1.704 1.005a.608.608 0 00.518.285c.094 0 .19-.021.28-.065a.316.316 0 00.066-.044l.74-.641a.528.528 0 00.245-.31c.07-.24-.04-.472-.11-.589-.778-1.277-2-2.01-3.3-2.01h-.014c-.04-.008-.042-.008-5.308.003-.28 0-.51.229-.51.51v1.346c0 .281.23.51.51.51h1.929v2.29A4.464 4.464 0 000 8.907v11.188c0 .168.136.305.305.305h8.301a.305.305 0 00.305-.305V16.47c2.323.408 4.336.529 6.456-.136l3.521 2.324a.323.323 0 00.501-.268v-5.157a.324.324 0 00-.14-.266z"></path></svg>