<svg xmlns="http://www.w3.org/2000/svg" viewBox="0 0 34 34"><defs><style>.cls-1{fill:#fff;}.cls-2{fill:none;stroke:#232323;stroke-linecap:round;stroke-linejoin:round;}</style></defs><title>Risorsa 29</title><g id="Livello_2" data-name="Livello 2"><g id="Livello_1-2" data-name="Livello 1"><circle class="cls-1" cx="17.01" cy="17.03" r="16.52"/><line class="cls-2" x1="0.5" y1="17" x2="11.11" y2="17"/><line class="cls-2" x1="0.87" y1="20.51" x2="8.07" y2="20.51"/><line class="cls-2" x1="0.86" y1="13.56" x2="8.07" y2="13.56"/><path class="cls-2" d="M13.2,23.18,19,17.42a.47.47,0,0,0,0-.67L13.19,11a.49.49,0,0,1,0-.68l1.68-1.66a.48.48,0,0,1,.67,0l7.87,7.85a.87.87,0,0,1,0,1.2l-7.85,7.86a.48.48,0,0,1-.68,0L13.2,23.86A.48.48,0,0,1,13.2,23.18Z"/><path class="cls-2" d="M.86,13.56a16.49,16.49,0,1,1,0,7"/></g></g></svg>