<svg version="1.1" xmlns="http://www.w3.org/2000/svg" xmlns:xlink="http://www.w3.org/1999/xlink" x="0px" y="0px" viewBox="-983 563 37 37" enable-background="new -983 563 37 37" xml:space="preserve" class="def_1h34r"><g><path stroke-linecap="round" stroke-miterlimit="10" d="M-978.867,589.547h-1.103c-1.364-2.49-2.031-5.008-2.031-8.047c0-9.665,7.841-17.5,17.513-17.5c9.347,0,16.983,7.317,17.487,16.531l-0.001,0.025" class="cls_01_CROMg"/><path stroke-linecap="round" stroke-miterlimit="10" d="M-947.179,584.189" class="cls_01_CROMg"/><path stroke-linecap="round" stroke-miterlimit="10" d="M-973.791,596.329c2.696,1.692,5.885,2.671,9.304,2.671c7.413,0,13.75-4.602,16.306-11.102l0.004-0.021" class="cls_01_CROMg"/><path stroke-linecap="round" stroke-miterlimit="10" d="M-956.656,574.649l-12.53,14.898h-10.089l-0.091-1.114c-0.111-2.939,5.604-4.405,5.604-4.405s1.418-8.347,1.833-8.402c0.415-0.056,2.766-0.369,4.379-1.991c1.613-1.622-1.808-2.994-0.591-4.422c1.217-1.428,2.932-1.235,3.872-0.517c0.941,0.719,5.487,4.191,7.211,5.508c1.724,1.317,2.147,1.868,1.193,3.155s-12.48,14.228-12.48,14.228h-9.808" class="cls_01_CROMg"/><path stroke-linecap="round" stroke-miterlimit="10" d="M-959.857,572.066c0,0-2.54,3.515,0.433,5.875" class="cls_01_CROMg"/><line stroke-linecap="round" stroke-linejoin="round" stroke-miterlimit="10" x1="-973.324" y1="577.078" x2="-969.905" y2="577.755" class="cls_01_CROMg"/><line stroke-linecap="round" stroke-linejoin="round" stroke-miterlimit="10" x1="-973.792" y1="579.146" x2="-970.372" y2="579.823" class="cls_01_CROMg"/><line stroke-linecap="round" stroke-linejoin="round" stroke-miterlimit="10" x1="-974.082" y1="581.125" x2="-970.662" y2="581.802" class="cls_01_CROMg"/><g><line stroke-linecap="round" stroke-linejoin="round" stroke-miterlimit="10" x1="-961.066" y1="587.877" x2="-948.177" y2="587.877" class="cls_01_CROMg"/><polyline stroke-linecap="round" stroke-linejoin="round" stroke-miterlimit="10" points="-957.862,584.169 -947.179,584.162 -947.179,584.189" class="cls_01_CROMg"/><line stroke-linecap="round" stroke-linejoin="round" stroke-miterlimit="10" x1="-954.932" y1="580.556" x2="-947.001" y2="580.556" class="cls_01_CROMg"/></g><path stroke-linecap="round" stroke-miterlimit="10" d="M-975.136,584.169" class="cls_01_CROMg"/><path stroke-linecap="round" stroke-miterlimit="10" d="M-967.367,571.815c0,0,3.491-0.246,3.961-2.459" class="cls_01_CROMg"/></g></svg>