<svg id="Layer_1" version="1.1" xmlns="http://www.w3.org/2000/svg" xmlns:xlink="http://www.w3.org/1999/xlink" x="0px" y="0px" viewBox="-1161.5 563 37 37" enable-background="new -1161.5 563 37 37" xml:space="preserve" class="def_3WYSE"><g><path stroke-linecap="round" stroke-miterlimit="10" d="M-1144.961,592.138l-2.405,6.689l-0.046,0.173c-7.529-1.988-13.087-8.943-13.087-17.215c0-9.822,7.834-17.785,17.5-17.785c9.665,0,17.5,7.963,17.5,17.785c0,8.267-5.55,15.218-13.074,17.211l-0.013,0.004l-1.811-4.936" class="cls_01_1ZQda"/><path stroke-linecap="round" stroke-miterlimit="10" d="M-1131.392,588.983c0,0.448-0.372,0.808-0.828,0.808h-21.56c-0.458,0-0.829-0.359-0.829-0.808v-13.158c0-0.446,0.371-0.808,0.829-0.808h21.56c0.457,0,0.828,0.362,0.828,0.808V588.983z" class="cls_01_1ZQda"/><line stroke-linecap="round" stroke-miterlimit="10" x1="-1154.608" y1="577.534" x2="-1147.106" y2="577.534" class="cls_01_1ZQda"/><line stroke-linecap="round" stroke-miterlimit="10" x1="-1147.025" y1="587.293" x2="-1154.608" y2="587.293" class="cls_01_1ZQda"/><line stroke-linecap="round" stroke-miterlimit="10" x1="-1131.392" y1="587.293" x2="-1138.958" y2="587.293" class="cls_01_1ZQda"/><line stroke-linecap="round" stroke-miterlimit="10" x1="-1138.937" y1="577.534" x2="-1131.392" y2="577.534" class="cls_01_1ZQda"/><path stroke-linecap="round" stroke-miterlimit="10" d="M-1139.399,587.613c-1.021,0.707-2.264,1.124-3.601,1.124c-3.498,0-6.331-2.834-6.331-6.333c0-3.495,2.833-6.331,6.331-6.331c3.497,0,6.333,2.836,6.333,6.331C-1136.667,584.564-1137.749,586.47-1139.399,587.613" class="cls_01_1ZQda"/><circle stroke-linecap="round" stroke-miterlimit="10" cx="-1143" cy="582.404" r="4.221" class="cls_01_1ZQda"/><polygon stroke-linecap="round" stroke-miterlimit="10" points="-1139.901,571.157-1142.904,571.157 -1143.096,571.157 -1146.098,571.157 -1148.665,575.018 -1143.096,575.018 -1142.904,575.018 -1137.336,575.018" class="cls_01_1ZQda"/><path stroke-linecap="round" stroke-miterlimit="10" d="M-1149.375,573.812c0,0.667-0.515,1.206-1.151,1.206h-0.863c-0.636,0-1.152-0.538-1.152-1.206v-0.754c0-0.668,0.516-1.206,1.152-1.206h0.863c0.636,0,1.151,0.538,1.151,1.206V573.812z" class="cls_01_1ZQda"/><rect x="-1148.277" y="589.791" stroke-linecap="round" stroke-miterlimit="10" width="10.553" height="2.111" class="cls_01_1ZQda"/></g></svg>